<?xml version="1.0" encoding="UTF-8" standalone="no" ?>
<!DOCTYPE svg PUBLIC "-//W3C//DTD SVG 1.1//EN" "http://www.w3.org/Graphics/SVG/1.1/DTD/svg11.dtd">
<svg xmlns="http://www.w3.org/2000/svg" xmlns:xlink="http://www.w3.org/1999/xlink" version="1.1" width="1280" height="1024" viewBox="0 0 1280 1024" xml:space="preserve">
<desc>Created with Fabric.js 5.3.0</desc>
<defs>
</defs>
<g transform="matrix(1 0 0 1 640 512)" id="background-logo"  >
<rect style="stroke: none; stroke-width: 0; stroke-dasharray: none; stroke-linecap: butt; stroke-dashoffset: 0; stroke-linejoin: miter; stroke-miterlimit: 4; fill: rgb(255,255,255); fill-opacity: 0; fill-rule: nonzero; opacity: 1;"  paint-order="stroke"  x="-640" y="-512" rx="0" ry="0" width="1280" height="1024" />
</g>
<g transform="matrix(1.9211538461538462 0 0 1.9211538461538462 195.24334178820538 511.3665187064046)" id="logo-logo"  >
<g style=""  paint-order="stroke"   >
		<g transform="matrix(0.763746644105562 0 0 0.763746644105562 -19.576009542211068 72.65942790308759)"  >
<linearGradient id="SVGID_2_396706" gradientUnits="userSpaceOnUse" gradientTransform="matrix(1 0 0 1 0 0)"  x1="124.166206" y1="235.915282" x2="190.81838" y2="256.393543">
<stop offset="0%" style="stop-color:rgb(58,125,178);stop-opacity: 1"/>
<stop offset="100%" style="stop-color:rgb(76,72,171);stop-opacity: 1"/>
</linearGradient>
<path style="stroke: none; stroke-width: 1; stroke-dasharray: none; stroke-linecap: butt; stroke-dashoffset: 0; stroke-linejoin: miter; stroke-miterlimit: 4; fill: url(#SVGID_2_396706); fill-rule: nonzero; opacity: 1;"  paint-order="stroke"  transform=" translate(-161.8684506147482, -245.13551030791177)" d="M 197.666635 251.070402 C 197.622533 251.068637 197.57927400000003 251.067102 197.53517100000002 251.065337 C 195.83760800000002 250.990704 194.059209 250.864481 192.209933 250.690231 C 192.873441 251.401297 193.04614800000002 251.831274 193.09039 251.985902 C 192.93687200000002 252.13505600000002 192.340098 252.595278 190.554751 252.948421 C 188.71165000000002 253.31343999999999 186.162763 253.442792 183.183984 253.321865 C 176.764506 253.062261 168.643143 251.694377 160.31508300000002 249.471719 C 151.98702300000002 247.249061 144.26409800000002 244.388297 138.568957 241.414656 C 135.92691200000002 240.03545400000002 133.78060000000002 238.653009 132.36448800000002 237.418147 C 130.993377 236.222584 130.70443600000002 235.52597500000002 130.64565500000003 235.320161 C 130.76106200000004 235.208141 131.12590200000002 234.92162900000002 132.05463500000005 234.635513 C 130.36531000000005 233.865353 128.75966800000003 233.088417 127.25151900000004 232.30748400000002 C 127.21240200000004 232.28703900000002 127.17413100000005 232.266814 127.13501400000004 232.24636900000002 C 126.64686900000004 232.79380400000002 126.30868800000005 233.416741 126.12284500000004 234.113077 C 125.60043900000004 236.070476 126.41070200000004 238.12337 128.53150300000004 240.214926 C 130.11785000000003 241.779954 132.47885800000003 243.418008 135.54999400000005 245.08457099999998 C 141.62609600000005 248.38275399999998 149.99438600000005 251.53856799999997 159.11389100000005 253.97245299999997 C 168.23339600000006 256.406338 177.06131800000006 257.83998299999996 183.97281400000006 258.00803299999995 C 187.46595300000007 258.09339499999993 190.32919600000005 257.84962999999993 192.48440900000006 257.28317899999996 C 195.36536100000006 256.52653 197.09164400000006 255.15060999999997 197.61405000000005 253.19320999999997 C 197.79989400000005 252.49687399999996 197.81708600000005 251.78826899999996 197.66663500000004 251.07039999999998 Z" stroke-linecap="round" />
</g>
		<g transform="matrix(0.763746644105562 0 0 0.763746644105562 -31.107231858416014 64.41643271942598)"  >
<linearGradient id="SVGID_3_396707" gradientUnits="userSpaceOnUse" gradientTransform="matrix(1 0 0 1 0 0)"  x1="192.860394" y1="251.937863" x2="78.952505" y2="211.492308">
<stop offset="0%" style="stop-color:rgb(58,125,178);stop-opacity: 1"/>
<stop offset="100%" style="stop-color:rgb(76,72,171);stop-opacity: 1"/>
</linearGradient>
<path style="stroke: none; stroke-width: 1; stroke-dasharray: none; stroke-linecap: butt; stroke-dashoffset: 0; stroke-linejoin: miter; stroke-miterlimit: 4; fill: url(#SVGID_3_396707); fill-rule: nonzero; opacity: 1;"  paint-order="stroke"  transform=" translate(-146.77022084810966, -234.34267049999997)" d="M 180.95721 245.663034 C 180.95721 241.88917600000002 177.886959 238.818925 174.113101 238.818925 C 173.982765 238.818925 173.853492 238.823404 173.724931 238.83063 C 171.26744 238.968771 169.153238 240.409353 168.06128999999999 242.471572 C 166.240098 242.033706 164.403225 241.56876 162.55586899999997 241.075725 C 149.36956999999998 237.556461 137.30575899999997 233.093243 128.58787999999998 228.50689 C 118.70750999999998 223.310089 117.05817399999998 219.987117 117.25942899999998 219.233035 C 117.31631899999998 219.019888 117.60297099999998 218.702497 118.23742999999999 218.366953 C 117.32180199999999 217.94610799999998 116.428147 217.524754 115.55646499999999 217.102896 C 114.91602999999999 216.79279599999998 114.29048199999998 216.48483599999997 113.680056 216.17819699999998 C 113.24648699999999 216.739286 112.938651 217.35758099999998 112.758699 218.03184499999998 C 112.111414 220.45714399999997 113.25689999999999 223.07073099999997 116.163067 225.79852899999997 C 118.471763 227.96661099999997 121.922834 230.26491699999997 126.41942399999999 232.63030499999996 C 135.43586399999998 237.37274899999997 147.842284 241.97016499999995 161.35468 245.57646299999996 C 163.391236 246.11999399999996 165.416885 246.63086499999997 167.424091 247.10893299999995 C 168.089648 250.19052999999994 170.835325 252.50714399999995 174.113102 252.50714399999995 C 176.14654099999998 252.50714399999995 177.97463199999999 251.61479799999995 179.229285 250.20225599999995 C 180.303144 248.99326499999995 180.95721 247.40345399999995 180.95721 245.66303499999995 Z M 174.113102 242.155008 C 176.050532 242.155008 177.621133 243.72560900000002 177.621133 245.663045 C 177.621133 247.600481 176.05053199999998 249.171076 174.113102 249.171076 C 172.17567200000002 249.171076 170.605071 247.600475 170.605071 245.663045 C 170.605071 243.72561500000003 172.175666 242.155008 174.113102 242.155008 Z" stroke-linecap="round" />
</g>
		<g transform="matrix(0.763746644105562 0 0 0.763746644105562 -40.868756304890894 50.156338883123084)"  >
<linearGradient id="SVGID_4_396708" gradientUnits="userSpaceOnUse" gradientTransform="matrix(1 0 0 1 0 0)"  x1="197.518219" y1="238.819908" x2="83.61033" y2="198.374353">
<stop offset="0%" style="stop-color:rgb(58,125,178);stop-opacity: 1"/>
<stop offset="100%" style="stop-color:rgb(76,72,171);stop-opacity: 1"/>
</linearGradient>
<path style="stroke: none; stroke-width: 1; stroke-dasharray: none; stroke-linecap: butt; stroke-dashoffset: 0; stroke-linejoin: miter; stroke-miterlimit: 4; fill: url(#SVGID_4_396708); fill-rule: nonzero; opacity: 1;"  paint-order="stroke"  transform=" translate(-133.98911794990084, -215.67143449999998)" d="M 165.232931 238.635717 C 169.006789 238.635717 172.07704 235.565466 172.07704 231.791608 C 172.07704 228.01775 169.006789 224.947499 165.232931 224.947499 C 165.102606 224.947499 164.973332 224.951978 164.844783 224.959204 C 162.402076 225.096508 160.297966 226.52031 159.200379 228.562686 C 142.991246 223.87934800000002 128.300355 218.297987 117.298967 212.612481 C 111.41915800000001 209.574095 106.78296800000001 206.572875 103.89116800000001 203.934418 C 101.53275900000001 201.782183 100.30488000000001 199.821599 100.607212 198.68876799999998 C 100.909324 197.556795 102.95084700000001 196.46876799999998 106.068048 195.77790699999997 C 106.11555100000001 195.76692099999997 106.163675 195.75702799999996 106.21202600000001 195.74627799999996 C 104.16002100000001 194.70921399999997 102.285666 193.69500199999996 100.595314 192.70715199999995 C 98.143815 193.88952999999995 96.63976600000001 195.48941499999995 96.106481 197.48757199999994 C 95.30190900000001 200.50222499999995 96.864844 203.82851299999993 100.751324 207.37558099999995 C 103.98547099999999 210.32645599999995 108.833483 213.48154599999995 115.160342 216.75022399999995 C 126.56590800000001 222.64485499999995 141.79307599999999 228.41573199999993 158.539914 233.21998599999995 C 158.741276 234.16446399999995 159.138425 235.03677999999994 159.686135 235.79375799999994 C 160.93054800000002 237.51364199999995 162.952598 238.63571699999994 165.232932 238.63571699999994 Z M 165.232952 228.283566 C 167.17038200000002 228.283566 168.740983 229.85416700000002 168.740983 231.791597 C 168.740983 233.72902699999997 167.170382 235.29962799999998 165.232952 235.29962799999998 C 163.29552200000003 235.29962799999998 161.724915 233.729033 161.724915 231.791597 C 161.724915 229.854161 163.29551600000002 228.283566 165.232952 228.283566 Z" stroke-linecap="round" />
</g>
		<g transform="matrix(0.763746644105562 0 0 0.763746644105562 30.88641564005019 19.898658637134588)"  >
<linearGradient id="SVGID_5_396709" gradientUnits="userSpaceOnUse" gradientTransform="matrix(1 0 0 1 0 0)"  x1="274.319585" y1="182.680314" x2="176.644946" y2="157.91773">
<stop offset="0%" style="stop-color:rgb(58,125,178);stop-opacity: 1"/>
<stop offset="53.88889999999999%" style="stop-color:rgb(76,72,171);stop-opacity: 1"/>
<stop offset="100%" style="stop-color:rgb(19,19,135);stop-opacity: 1"/>
</linearGradient>
<path style="stroke: none; stroke-width: 1; stroke-dasharray: none; stroke-linecap: butt; stroke-dashoffset: 0; stroke-linejoin: miter; stroke-miterlimit: 4; fill: url(#SVGID_5_396709); fill-rule: nonzero; opacity: 1;"  paint-order="stroke"  transform=" translate(-227.94065606628084, -176.0540031443129)" d="M 285.441849 175.86284 C 284.255083 174.307126 282.466636 172.688153 279.97452699999997 170.914136 C 279.80567399999995 170.793564 279.63318399999997 170.67294800000002 279.458151 170.551625 C 279.040825 170.598532 278.60952 170.639892 278.162304 170.676103 C 276.100364 170.84534200000002 273.747603 170.907871 271.116372 170.865148 C 273.501748 172.204051 275.557316 173.48677700000002 277.272538 174.70868000000002 C 281.917944 178.01619200000002 282.624394 179.90584600000003 282.504509 180.35506900000001 C 282.384624 180.804292 280.830529 182.09063300000003 275.154593 182.64440000000002 C 269.84507299999996 183.161344 262.44312099999996 182.932452 253.15460499999998 181.96352800000003 C 233.85150999999996 179.95108100000002 208.77045599999997 174.98566100000002 182.53201199999998 167.98293500000003 C 178.33610199999998 166.86308600000004 174.19217999999998 165.71271300000004 170.117765 164.53819900000002 C 170.10876299999998 166.189906 169.58765599999998 167.72020300000003 168.70503599999998 168.97866000000002 C 172.84912999999997 170.17426700000001 177.06372999999996 171.34483200000003 181.330821 172.48366000000001 C 207.79769499999998 179.54734800000003 233.13363199999998 184.55989000000002 252.672122 186.59696000000002 C 262.269483 187.59826400000003 269.986105 187.82745700000004 275.606498 187.28067600000003 C 278.651385 186.98350400000004 281.008459 186.47185000000002 282.812592 185.71436100000003 C 285.116557 184.74732500000002 286.527033 183.34805000000003 287.005245 181.55625500000002 C 287.483447 179.76446 286.95778 177.84845500000003 285.441849 175.86284100000003 Z" stroke-linecap="round" />
</g>
		<g transform="matrix(0.763746644105562 0 0 0.763746644105562 -46.64830994368316 -2.7110420338058248)"  >
<linearGradient id="SVGID_6_396710" gradientUnits="userSpaceOnUse" gradientTransform="matrix(1 0 0 1 0 0)"  x1="161.455684" y1="159.169209" x2="89.369049" y2="131.380086">
<stop offset="0%" style="stop-color:rgb(58,125,178);stop-opacity: 1"/>
<stop offset="100%" style="stop-color:rgb(76,72,171);stop-opacity: 1"/>
</linearGradient>
<path style="stroke: none; stroke-width: 1; stroke-dasharray: none; stroke-linecap: butt; stroke-dashoffset: 0; stroke-linejoin: miter; stroke-miterlimit: 4; fill: url(#SVGID_6_396710); fill-rule: nonzero; opacity: 1;"  paint-order="stroke"  transform=" translate(-126.42174769250238, -146.450337)" d="M 160.981547 170.987329 C 164.755405 170.987329 167.825656 167.91707799999998 167.825656 164.14321999999999 C 167.825656 160.369362 164.755405 157.29911099999998 160.981547 157.29911099999998 C 160.85121700000002 157.29911099999998 160.721948 157.30359599999997 160.59339400000002 157.310816 C 158.48513100000002 157.429318 156.62966500000002 158.506487 155.45518900000002 160.112295 C 139.856739 155.182367 125.75302000000002 149.982304 114.33493300000002 144.91425099999998 C 105.79885700000003 141.125995 99.26720300000002 137.63618699999998 94.92136700000002 134.542343 C 90.27618100000002 131.233994 89.56972000000002 129.34434 89.68961100000001 128.895117 C 89.80950200000001 128.445894 91.36360200000001 127.159553 97.039313 126.606623 C 99.13528600000001 126.401871 101.55666300000001 126.314001 104.291955 126.341746 C 101.98935300000001 125.067678 99.981492 123.84135500000001 98.278098 122.667185 C 97.908388 122.41296200000001 97.554417 122.16110900000001 97.215735 121.913345 C 97.003537 121.93130500000001 96.793882 121.94994200000001 96.587397 121.970348 C 93.542751 122.266661 91.186278 122.7794 89.38131299999999 123.53667300000001 C 87.07757299999999 124.50286200000001 85.667087 125.90211500000001 85.188874 127.693921 C 84.710667 129.485727 85.23635 131.401721 86.752061 133.388182 C 87.939658 134.944122 89.727494 136.562021 92.21936699999999 138.336886 C 96.81988299999999 141.611492 103.62450399999999 145.257847 112.445343 149.172126 C 124.03818899999999 154.317793 138.345668 159.59227199999998 154.153274 164.585512 C 154.23819400000002 165.909212 154.700849 167.131137 155.434718 168.145391 C 156.679136 169.86525899999998 158.701191 170.987329 160.981547 170.987329 Z M 157.473521 164.14322 C 157.473521 162.205779 159.04412200000002 160.635183 160.981558 160.635183 C 162.918994 160.635183 164.489589 162.205778 164.489589 164.14322 C 164.489589 166.08064000000002 162.91898799999998 167.65124600000001 160.981558 167.65124600000001 C 159.04412800000003 167.65124600000001 157.473521 166.08064000000002 157.473521 164.14322 Z" stroke-linecap="round" />
</g>
		<g transform="matrix(0.763746644105562 0 0 0.763746644105562 44.53098385185774 34.07649341537797)"  >
<linearGradient id="SVGID_7_396711" gradientUnits="userSpaceOnUse" gradientTransform="matrix(1 0 0 1 0 0)"  x1="270.362151" y1="198.290193" x2="172.687512" y2="173.527608">
<stop offset="0%" style="stop-color:rgb(58,125,178);stop-opacity: 1"/>
<stop offset="53.88889999999999%" style="stop-color:rgb(76,72,171);stop-opacity: 1"/>
<stop offset="100%" style="stop-color:rgb(19,19,135);stop-opacity: 1"/>
</linearGradient>
<path style="stroke: none; stroke-width: 1; stroke-dasharray: none; stroke-linecap: butt; stroke-dashoffset: 0; stroke-linejoin: miter; stroke-miterlimit: 4; fill: url(#SVGID_7_396711); fill-rule: nonzero; opacity: 1;"  paint-order="stroke"  transform=" translate(-245.8059629937987, -194.6175345033898)" d="M 279.40117 190.984279 C 278.337873 189.56248399999998 276.778393 188.09104599999998 274.64543799999996 186.498392 C 272.23847499999994 186.671987 269.44762799999995 186.705837 266.290172 186.599985 C 268.206348 187.719963 269.884169 188.799085 271.31899999999996 189.834261 C 275.85259899999994 193.107386 276.53262399999994 194.997266 276.41205199999996 195.449031 C 276.29124399999995 195.90165499999998 274.759959 197.20135399999998 269.19832899999994 197.780194 C 263.98777299999995 198.321718 256.72787299999993 198.12982 247.61960399999995 197.208092 C 236.91574099999994 196.125226 224.40447199999994 194.109098 210.90433399999995 191.32129899999998 C 211.03113999999994 191.88009699999998 211.09838399999995 192.46153299999997 211.09838399999995 193.058709 C 211.09838399999995 194.09854099999998 210.89488199999997 195.090715 210.52635199999995 195.998259 C 223.97249699999995 198.758807 236.44630499999994 200.75919499999998 247.15055499999994 201.84237199999998 C 256.57427799999994 202.79552499999997 264.15416999999997 202.988217 269.6801259999999 202.41351899999998 C 272.67705499999994 202.101735 274.9993879999999 201.577151 276.7789409999999 200.80947099999997 C 279.04640599999993 199.83269299999998 280.4368399999999 198.43352499999997 280.9127779999999 196.65021699999997 C 281.3887269999999 194.86690899999996 280.8803759999999 192.96099999999996 279.40117099999986 190.98427999999996 Z" stroke-linecap="round" />
</g>
		<g transform="matrix(0.763746644105562 0 0 0.763746644105562 -31.854670698606128 14.392332391653184)"  >
<linearGradient id="SVGID_8_396712" gradientUnits="userSpaceOnUse" gradientTransform="matrix(1 0 0 1 0 0)"  x1="189.122297" y1="185.234327" x2="88.69626" y2="146.989891">
<stop offset="0%" style="stop-color:rgb(58,125,178);stop-opacity: 1"/>
<stop offset="100%" style="stop-color:rgb(76,72,171);stop-opacity: 1"/>
</linearGradient>
<path style="stroke: none; stroke-width: 1; stroke-dasharray: none; stroke-linecap: butt; stroke-dashoffset: 0; stroke-linejoin: miter; stroke-miterlimit: 4; fill: url(#SVGID_8_396712); fill-rule: nonzero; opacity: 1;"  paint-order="stroke"  transform=" translate(-145.79157322201706, -168.844379)" d="M 201.961613 199.551249 C 205.735471 199.551249 208.805765 196.480998 208.805765 192.70714 C 208.805765 188.93328200000002 205.73547100000002 185.863031 201.961613 185.863031 C 201.831283 185.863031 201.702014 185.867516 201.57346 185.874736 C 199.675453 185.981414 197.982832 186.86552600000002 196.806902 188.212401 C 190.769147 186.79949 184.601077 185.255105 178.366375 183.591146 C 152.645096 176.726438 128.911635 168.664781 111.538594 160.88971800000002 C 103.182314 157.15037500000003 96.791404 153.69904100000002 92.543619 150.63318900000002 C 88.01002000000001 147.36005300000002 87.32999500000001 145.47018400000002 87.450793 145.017571 C 87.571371 144.565795 89.10265000000001 143.266085 94.66429000000001 142.687266 C 96.42412300000001 142.50469099999998 98.41652400000001 142.405126 100.63593300000001 142.388882 C 97.845634 140.90733699999998 95.44279600000002 139.487366 93.442429 138.137509 C 90.799519 138.455548 88.71424900000001 138.954232 87.083893 139.657131 C 84.81729200000001 140.634145 83.426005 142.033066 82.950061 143.816374 C 82.474117 145.599682 82.983321 147.50583799999998 84.461668 149.482322 C 85.62204100000001 151.034635 87.374144 152.646634 89.817167 154.410276 C 94.321895 157.66205100000002 100.989796 161.271916 109.635243 165.141208 C 127.228674 173.014195 151.211229 181.165084 177.165177 188.09187 C 183.229712 189.710424 189.234154 191.217321 195.120234 192.601243 C 195.11969200000001 192.636627 195.117546 192.671625 195.117546 192.70713800000001 C 195.117546 194.200635 195.599798 195.582883 196.414815 196.70930900000002 C 197.659222 198.429177 199.681256 199.55124700000002 201.961612 199.55124700000002 Z M 198.453592 192.70714 C 198.453592 190.76972 200.024193 189.199114 201.961629 189.199114 C 203.89906499999998 189.199114 205.46965999999998 190.76972 205.46965999999998 192.70714 C 205.46965999999998 194.64458100000002 203.89905899999997 196.215177 201.961629 196.215177 C 200.024199 196.215177 198.453592 194.644582 198.453592 192.70714 Z" stroke-linecap="round" />
</g>
		<g transform="matrix(0.763746644105562 0 0 0.763746644105562 49.178616745216345 45.537297828770846)"  >
<linearGradient id="SVGID_9_396713" gradientUnits="userSpaceOnUse" gradientTransform="matrix(1 0 0 1 0 0)"  x1="266.595673" y1="213.146855" x2="168.921034" y2="188.38427">
<stop offset="0%" style="stop-color:rgb(58,125,178);stop-opacity: 1"/>
<stop offset="53.88889999999999%" style="stop-color:rgb(76,72,171);stop-opacity: 1"/>
<stop offset="100%" style="stop-color:rgb(19,19,135);stop-opacity: 1"/>
</linearGradient>
<path style="stroke: none; stroke-width: 1; stroke-dasharray: none; stroke-linecap: butt; stroke-dashoffset: 0; stroke-linejoin: miter; stroke-miterlimit: 4; fill: url(#SVGID_9_396713); fill-rule: nonzero; opacity: 1;"  paint-order="stroke"  transform=" translate(-251.89127011655734, -209.6235636648205)" d="M 267.42856 201.9436 C 265.113609 202.082626 262.481573 202.104277 259.546336 202.007695 C 260.795963 202.796061 261.915962 203.55890300000002 262.896571 204.29183300000003 C 267.014121 207.36841400000003 267.813281 209.26187700000003 267.660758 209.83338300000003 C 267.508224 210.40489500000004 265.871634 211.64920600000002 260.768648 212.26492600000003 C 255.86578899999998 212.85674200000003 248.75125599999998 212.74730700000003 240.193212 211.94878000000003 C 237.399136 211.68820000000002 234.476248 211.35941000000003 231.44114499999998 210.96587600000004 C 231.71064699999997 211.75713900000002 231.85700099999997 212.60538400000004 231.85700099999997 213.48784300000003 C 231.85700099999997 214.24728400000004 231.74829499999996 214.98125400000004 231.54633199999998 215.67551600000002 C 234.38681099999997 216.03682500000002 237.129484 216.34178100000003 239.76033999999999 216.58725500000003 C 248.770332 217.42726000000002 256.026123 217.52891200000002 261.32734899999997 216.88967800000003 C 267.773691 216.11123600000002 271.31771299999997 214.19613300000003 272.161484 211.03457300000002 C 272.903737 208.25345800000002 271.35374099999996 205.26720400000002 267.428562 201.94359900000003 Z" stroke-linecap="round" />
</g>
		<g transform="matrix(0.763746644105562 0 0 0.763746644105562 -23.76987850662141 28.68073564293988)"  >
<linearGradient id="SVGID_10_396714" gradientUnits="userSpaceOnUse" gradientTransform="matrix(1 0 0 1 0 0)"  x1="208.67931" y1="207.38663" x2="94.771421" y2="166.941075">
<stop offset="0%" style="stop-color:rgb(58,125,178);stop-opacity: 1"/>
<stop offset="100%" style="stop-color:rgb(76,72,171);stop-opacity: 1"/>
</linearGradient>
<path style="stroke: none; stroke-width: 1; stroke-dasharray: none; stroke-linecap: butt; stroke-dashoffset: 0; stroke-linejoin: miter; stroke-miterlimit: 4; fill: url(#SVGID_10_396714); fill-rule: nonzero; opacity: 1;"  paint-order="stroke"  transform=" translate(-156.3772723597893, -187.5526815)" d="M 222.720235 219.980363 C 226.494093 219.980363 229.564387 216.910112 229.564387 213.136297 C 229.564387 209.36243900000002 226.49409300000002 206.292188 222.720235 206.292188 C 222.58990500000002 206.292188 222.460642 206.296673 222.332087 206.30389300000002 C 220.34906900000001 206.415356 218.589488 207.37477 217.410018 208.824675 C 204.09086200000002 206.515946 189.347759 203.241915 174.20073100000002 199.19936 C 149.70993800000002 192.66306600000001 127.13370100000002 184.911156 110.63148400000003 177.370328 C 102.81364400000002 173.798325 96.59071200000002 170.348161 92.63476100000003 167.392034 C 88.51804700000002 164.315678 87.71827600000003 162.421143 87.87081000000002 161.849631 C 88.02333300000002 161.27812999999998 89.66054000000003 160.034897 94.76268400000002 159.41894599999998 C 95.97809100000002 159.27210899999997 97.32925700000003 159.16876699999997 98.80553900000002 159.10793399999997 C 96.21251400000003 157.72908699999996 93.94129400000003 156.39880999999997 92.00432500000002 155.12499999999997 C 86.94502700000002 156.05076199999996 84.11231600000002 157.86731899999998 83.37007300000002 160.64844499999998 C 82.52629200000001 163.80999999999997 84.64472500000002 167.23633499999997 89.84592500000002 171.123373 C 94.12363800000003 174.31911 100.46601100000002 177.84662999999998 108.69552200000003 181.607646 C 125.42826200000002 189.252749 148.26502600000003 197.098752 172.99953800000003 203.700086 C 187.99410700000004 207.701957 202.61179800000002 210.959514 215.87994900000004 213.285468 C 215.91092400000005 214.72164 216.38571900000005 216.04974900000002 217.17344100000003 217.138436 C 218.41784800000002 218.858293 220.439882 219.980363 222.72023200000004 219.980363 Z M 219.21222 213.136281 C 219.21222 211.198845 220.782815 209.628244 222.720251 209.628244 C 224.65768699999998 209.628244 226.22828199999998 211.198845 226.22828199999998 213.136281 C 226.22828199999998 215.073717 224.65768099999997 216.64431199999999 222.720251 216.64431199999999 C 220.782821 216.64431199999999 219.21222 215.07371099999997 219.21222 213.136281 Z" stroke-linecap="round" />
</g>
		<g transform="matrix(0.763746644105562 0 0 0.763746644105562 18.71775958121492 55.91988163789358)"  >
<linearGradient id="SVGID_11_396715" gradientUnits="userSpaceOnUse" gradientTransform="matrix(1 0 0 1 0 0)"  x1="262.05149" y1="231.071134" x2="164.376851" y2="206.308549">
<stop offset="0%" style="stop-color:rgb(58,125,178);stop-opacity: 1"/>
<stop offset="53.88889999999999%" style="stop-color:rgb(76,72,171);stop-opacity: 1"/>
<stop offset="100%" style="stop-color:rgb(19,19,135);stop-opacity: 1"/>
</linearGradient>
<path style="stroke: none; stroke-width: 1; stroke-dasharray: none; stroke-linecap: butt; stroke-dashoffset: 0; stroke-linejoin: miter; stroke-miterlimit: 4; fill: url(#SVGID_11_396715); fill-rule: nonzero; opacity: 1;"  paint-order="stroke"  transform=" translate(-212.0078121673906, -223.2178411510174)" d="M 257.858859 219.677306 C 257.204755 218.65490799999998 256.317918 217.61496899999997 255.172052 216.533197 C 252.81789700000002 216.563512 250.21220100000002 216.49667 247.36562800000002 216.333708 C 248.48472600000002 217.086314 249.48582700000003 217.81743600000001 250.360518 218.521183 C 253.75380800000002 221.25072400000002 254.71118800000002 223.140941 254.50064200000003 223.92983900000002 C 254.29009600000003 224.718747 252.51816100000002 225.88054100000002 248.21605000000002 226.55626900000001 C 243.76281100000003 227.256255 237.31184400000004 227.31573100000003 229.56275600000004 226.727643 C 213.16765200000003 225.483123 191.94878800000004 221.544822 169.81366300000002 215.637225 C 168.58761800000002 215.310007 167.36738300000002 214.978744 166.15287200000003 214.644075 C 166.15335500000003 214.67994199999998 166.15423500000003 214.715712 166.15423500000003 214.751692 C 166.15423500000003 216.365611 165.66509000000002 217.865218 164.82714500000003 219.110618 C 166.08294700000002 219.45694999999998 167.34472400000004 219.79961799999998 168.61247200000003 220.137962 C 191.01679300000004 226.117405 212.53758100000002 230.107174 229.21014800000003 231.37207899999999 C 237.42920900000004 231.995535 244.06712800000003 231.924096 248.94012800000004 231.15784299999999 C 251.60637900000003 230.738699 253.68426200000005 230.12795599999998 255.29351400000004 229.28935199999998 C 257.29574700000006 228.24632799999998 258.54333600000007 226.84726199999997 259.0013670000001 225.131037 C 259.4596450000001 223.413964 259.0750970000001 221.579296 257.85885800000005 219.67730899999998 Z" stroke-linecap="round" />
</g>
		<g transform="matrix(0.763746644105562 0 0 0.763746644105562 -47.18783114452094 36.32593578251371)"  >
<linearGradient id="SVGID_12_396716" gradientUnits="userSpaceOnUse" gradientTransform="matrix(1 0 0 1 0 0)"  x1="202.475235" y1="224.859332" x2="88.567345" y2="184.413777">
<stop offset="0%" style="stop-color:rgb(58,125,178);stop-opacity: 1"/>
<stop offset="100%" style="stop-color:rgb(76,72,171);stop-opacity: 1"/>
</linearGradient>
<path style="stroke: none; stroke-width: 1; stroke-dasharray: none; stroke-linecap: butt; stroke-dashoffset: 0; stroke-linejoin: miter; stroke-miterlimit: 4; fill: url(#SVGID_12_396716); fill-rule: nonzero; opacity: 1;"  paint-order="stroke"  transform=" translate(-125.71533385094685, -197.56280749999996)" d="M 157.017485 221.244238 C 160.79134299999998 221.244238 163.861594 218.17398699999998 163.861594 214.400129 C 163.861594 210.626271 160.79134299999998 207.55602 157.017485 207.55602 C 156.887149 207.55602 156.75787 207.560499 156.62931 207.567725 C 154.532141 207.68561499999998 152.684748 208.751803 151.509328 210.34362099999998 C 136.58367700000002 205.67795299999997 123.115243 200.561941 112.48418600000001 195.480799 C 105.472571 192.129427 99.909975 188.86368299999998 96.39690200000001 186.037581 C 93.00361200000002 183.30803999999998 92.04622700000002 181.417828 92.25677200000001 180.62892499999998 C 92.46732300000001 179.84002199999998 94.23925300000002 178.67823399999997 98.54136900000002 178.00249999999997 C 99.65040300000001 177.82817499999996 100.88352900000001 177.69335499999997 102.22880500000002 177.59844599999997 C 99.67959200000003 176.32134199999996 97.38711700000002 175.08092099999996 95.36027700000002 173.88137699999996 C 93.82777500000003 174.24831899999995 92.54068200000002 174.70806699999997 91.46411900000003 175.26857099999995 C 89.46190200000002 176.31158999999994 88.21430200000003 177.71066099999996 87.75604000000003 179.42773899999995 C 87.29799800000002 181.14395899999994 87.68255200000003 182.97862699999993 88.89878500000003 184.88061999999994 C 89.87617500000003 186.40956599999993 91.37340500000003 187.97446399999993 93.47708100000003 189.66663999999994 C 97.31937400000002 192.75889599999994 103.03895000000003 196.12839999999994 110.47564800000004 199.68327899999994 C 121.31278100000003 204.86346099999994 135.01990300000003 210.07111399999994 150.18675300000004 214.81022699999994 C 150.26615800000005 216.14635099999995 150.73082000000005 217.37978799999993 151.47065400000002 218.40228799999994 C 152.71507200000002 220.12216099999995 154.73712700000002 221.24423699999994 157.01748300000003 221.24423699999994 Z M 153.509449 214.400129 C 153.509449 212.462699 155.080044 210.892098 157.01747999999998 210.892098 C 158.95491599999997 210.892098 160.52551099999997 212.46269900000001 160.52551099999997 214.400129 C 160.52551099999997 216.33755899999997 158.95490999999996 217.90815999999998 157.01747999999998 217.90815999999998 C 155.08005 217.90815999999998 153.509449 216.33756499999998 153.509449 214.400129 Z" stroke-linecap="round" />
</g>
		<g transform="matrix(0.763746644105562 0 0 0.763746644105562 15.533990933564667 66.46031533224027)"  >
<linearGradient id="SVGID_13_396717" gradientUnits="userSpaceOnUse" gradientTransform="matrix(1 0 0 1 0 0)"  x1="258.122633" y1="246.568293" x2="160.447993" y2="221.805709">
<stop offset="0%" style="stop-color:rgb(58,125,178);stop-opacity: 1"/>
<stop offset="53.88889999999999%" style="stop-color:rgb(76,72,171);stop-opacity: 1"/>
<stop offset="100%" style="stop-color:rgb(19,19,135);stop-opacity: 1"/>
</linearGradient>
<path style="stroke: none; stroke-width: 1; stroke-dasharray: none; stroke-linecap: butt; stroke-dashoffset: 0; stroke-linejoin: miter; stroke-miterlimit: 4; fill: url(#SVGID_13_396717); fill-rule: nonzero; opacity: 1;"  paint-order="stroke"  transform=" translate(-207.83919332995032, -237.01879697281464)" d="M 241.252635 230.246886 C 239.294841 230.26108599999998 237.164396 230.20646499999998 234.86851 230.08312899999999 C 234.90508499999999 230.11654399999998 234.94187499999998 230.149107 234.977592 230.182292 C 237.335996 232.33452699999998 238.563886 234.29511599999998 238.261779 235.42709499999998 C 237.95943599999998 236.55992099999997 235.917913 237.64794799999999 232.80071199999998 238.33880899999997 C 228.97878799999998 239.18545499999996 223.46368999999999 239.47741799999997 216.85268499999998 239.18215599999996 C 204.93028199999998 238.64964899999995 190.08613899999997 236.32625999999996 174.358356 232.56406899999996 C 174.270625 234.21760999999995 173.66920599999997 235.73481799999996 172.710635 236.95905499999995 C 188.932557 240.86823799999996 204.29527 243.28386499999996 216.644284 243.83505599999995 C 223.75849 244.15363199999996 229.533916 243.83381099999994 233.808346 242.88688099999996 C 238.945408 241.74808999999996 241.957937 239.64293299999997 242.762504 236.62829099999996 C 243.29578800000002 234.63012899999995 242.788962 232.49356299999997 241.252635 230.24688599999996 Z" stroke-linecap="round" />
</g>
		<g transform="matrix(0.763746644105562 0 0 0.763746644105562 9.358208419258744 74.57530609036519)"  >
<linearGradient id="SVGID_14_396718" gradientUnits="userSpaceOnUse" gradientTransform="matrix(1 0 0 1 0 0)"  x1="254.504044" y1="260.841616" x2="156.829405" y2="236.079031">
<stop offset="0%" style="stop-color:rgb(58,125,178);stop-opacity: 1"/>
<stop offset="53.88889999999999%" style="stop-color:rgb(76,72,171);stop-opacity: 1"/>
<stop offset="100%" style="stop-color:rgb(19,19,135);stop-opacity: 1"/>
</linearGradient>
<path style="stroke: none; stroke-width: 1; stroke-dasharray: none; stroke-linecap: butt; stroke-dashoffset: 0; stroke-linejoin: miter; stroke-miterlimit: 4; fill: url(#SVGID_14_396718); fill-rule: nonzero; opacity: 1;"  paint-order="stroke"  transform=" translate(-199.75302684795088, -247.64403614179128)" d="M 217.33793 243.843226 C 216.655888 243.804924 215.960081 243.760227 215.250299 243.709972 C 214.28433 243.641382 213.299565 243.561408 212.29600200000002 243.470045 C 212.678887 244.077107 212.76927400000002 244.495125 212.712389 244.708267 C 212.511129 245.462354 209.425354 247.52158 198.269451 247.104056 C 193.775812 246.93627600000002 188.689187 246.39770800000002 183.234359 245.528273 C 183.244235 245.68917000000002 183.24985700000002 245.851221 183.24985700000002 246.014607 C 183.24985700000002 247.498217 182.83527300000003 248.88439200000002 182.117568 250.06611 C 187.909152 251.002365 193.317711 251.58085 198.094907 251.759622 C 203.172144 251.949375 207.309484 251.676317 210.391478 250.946944 C 214.271231 250.030227 216.56584 248.334762 217.21312 245.909458 C 217.393072 245.2352 217.434261 244.545739 217.33793 243.843226 Z" stroke-linecap="round" />
</g>
		<g transform="matrix(0.763746644105562 0 0 0.763746644105562 53.76183476731484 -16.053498604836705)"  >
<linearGradient id="SVGID_15_396719" gradientUnits="userSpaceOnUse" gradientTransform="matrix(1 0 0 1 0 0)"  x1="295.789992" y1="138.03166" x2="195.914234" y2="110.586462">
<stop offset="0%" style="stop-color:rgb(58,125,178);stop-opacity: 1"/>
<stop offset="53.88889999999999%" style="stop-color:rgb(76,72,171);stop-opacity: 1"/>
<stop offset="100%" style="stop-color:rgb(19,19,135);stop-opacity: 1"/>
</linearGradient>
<path style="stroke: none; stroke-width: 1; stroke-dasharray: none; stroke-linecap: butt; stroke-dashoffset: 0; stroke-linejoin: miter; stroke-miterlimit: 4; fill: url(#SVGID_15_396719); fill-rule: nonzero; opacity: 1;"  paint-order="stroke"  transform=" translate(-257.89223661175674, -128.98059533369587)" d="M 283.365253 121.691009 C 282.423076 120.967424 281.375433 120.22662 280.225264 119.47118099999999 C 278.817846 120.00341399999999 277.076874 120.39478599999998 274.993744 120.65026499999999 C 274.501798 120.71091599999998 273.990144 120.76357399999999 273.460035 120.81039499999999 C 276.290729 122.42006499999998 278.671857 123.95888199999999 280.527328 125.38468899999998 C 284.446821 128.395662 285.211369 130.25170199999997 285.045478 130.87329699999998 C 284.879565 131.49491299999997 283.291857 132.723157 278.393289 133.38070499999998 C 273.666514 134.01497099999997 266.812503 133.972334 258.571662 133.256646 C 249.209116 132.44321699999998 238.354543 130.824298 226.6557 128.523702 C 226.732149 128.962561 226.772335 129.413876 226.772335 129.874611 C 226.772335 131.04503699999998 226.514684 132.15514399999998 226.053745 133.151996 C 237.808888 135.454824 248.72789999999998 137.077519 258.168167 137.897493 C 266.866964 138.652632 273.880806 138.686074 279.01331899999997 137.997251 C 285.26106799999997 137.158544 288.70627499999995 135.221618 289.546205 132.07448300000001 C 290.38613499999997 128.92738000000003 288.364235 125.53134400000002 283.365255 121.69100900000001 Z" stroke-linecap="round" />
</g>
		<g transform="matrix(0.763746644105562 0 0 0.763746644105562 -16.44462875536368 -32.989735733305395)"  >
<linearGradient id="SVGID_16_396720" gradientUnits="userSpaceOnUse" gradientTransform="matrix(1 0 0 1 0 0)"  x1="215.745556" y1="125.698121" x2="103.213366" y2="81.675749">
<stop offset="0%" style="stop-color:rgb(58,125,178);stop-opacity: 1"/>
<stop offset="100%" style="stop-color:rgb(76,72,171);stop-opacity: 1"/>
</linearGradient>
<path style="stroke: none; stroke-width: 1; stroke-dasharray: none; stroke-linecap: butt; stroke-dashoffset: 0; stroke-linejoin: miter; stroke-miterlimit: 4; fill: url(#SVGID_16_396720); fill-rule: nonzero; opacity: 1;"  paint-order="stroke"  transform=" translate(-165.96847620702385, -106.80539200000001)" d="M 217.635552 136.367152 C 221.40940999999998 136.367152 224.479704 133.296901 224.479704 129.523043 C 224.479704 125.74918500000001 221.40941 122.678934 217.635552 122.678934 C 217.505222 122.678934 217.37595299999998 122.683419 217.247404 122.690639 C 215.169671 122.807424 213.336607 123.85461600000001 212.15976999999998 125.421993 C 206.55086799999998 124.128849 200.820214 122.703921 195.028936 121.158292 C 171.462923 114.868829 149.75626 107.34898700000001 133.90809299999998 99.985445 C 126.40654899999998 96.49968199999999 120.44278599999998 93.121423 116.66063999999997 90.216227 C 112.74200999999998 87.205479 111.97660399999997 85.349214 112.14250699999997 84.727597 C 112.30840399999997 84.106002 113.89697099999997 82.877983 118.79467999999997 82.22021000000001 C 121.11385899999998 81.90855400000001 123.94509399999997 81.76085900000001 127.20142299999998 81.77575100000001 C 126.76514499999998 81.47100500000002 126.34777599999998 81.17040000000001 125.95146299999998 80.87269200000001 C 124.27266599999997 79.61319400000002 122.95822999999997 78.40637600000001 122.00318399999998 77.24363200000002 C 120.62954599999998 77.32549400000002 119.35209299999998 77.44576600000002 118.17467299999997 77.60365400000002 C 111.92690799999997 78.44236100000002 108.48169499999997 80.37928700000002 107.64177099999998 83.52640000000002 C 106.80184099999998 86.67353500000003 108.82375199999997 90.06956100000002 113.82273199999997 93.90989500000002 C 117.92946799999997 97.06456200000002 124.02721399999997 100.53043300000002 131.94547199999997 104.21019800000002 C 148.03151699999995 111.68452800000001 170.00781599999996 119.30178900000001 193.82774599999996 125.65903800000002 C 199.56153799999996 127.18931400000002 205.23878899999997 128.60268700000003 210.80148099999997 129.88877100000002 C 210.87309699999997 131.24204000000003 211.34070399999996 132.49134500000002 212.08876099999998 133.525212 C 213.33316799999997 135.24508 215.35520199999996 136.36715 217.635552 136.36715 Z M 214.127547 129.523043 C 214.127547 127.585623 215.698142 126.015017 217.63557799999998 126.015017 C 219.57301399999997 126.015017 221.14360899999997 127.585623 221.14360899999997 129.523043 C 221.14360899999997 131.460484 219.57300799999996 133.03108 217.63557799999998 133.03108 C 215.698148 133.03108 214.127547 131.460485 214.127547 129.523043 Z" stroke-linecap="round" />
</g>
		<g transform="matrix(0.763746644105562 0 0 0.763746644105562 38.60748357582207 -3.5453271595370666)"  >
<linearGradient id="SVGID_17_396721" gradientUnits="userSpaceOnUse" gradientTransform="matrix(1 0 0 1 0 0)"  x1="291.336799" y1="154.237261" x2="191.461042" y2="126.792063">
<stop offset="0%" style="stop-color:rgb(58,125,178);stop-opacity: 1"/>
<stop offset="53.88889999999999%" style="stop-color:rgb(76,72,171);stop-opacity: 1"/>
<stop offset="100%" style="stop-color:rgb(19,19,135);stop-opacity: 1"/>
</linearGradient>
<path style="stroke: none; stroke-width: 1; stroke-dasharray: none; stroke-linecap: butt; stroke-dashoffset: 0; stroke-linejoin: miter; stroke-miterlimit: 4; fill: url(#SVGID_17_396721); fill-rule: nonzero; opacity: 1;"  paint-order="stroke"  transform=" translate(-238.05011840613076, -145.3579785167646)" d="M 285.295698 138.903442 C 284.305745 138.18167100000002 283.210326 137.44266800000003 282.00919400000004 136.687272 C 280.98762200000004 136.912227 279.85419 137.09276300000002 278.605272 137.228839 C 277.254031 137.376727 275.769085 137.47346 274.15443600000003 137.521011 C 277.52986200000004 139.332472 280.33727400000004 141.053274 282.55175900000006 142.66768599999997 C 284.54220100000003 144.119512 285.9793920000001 145.43550799999997 286.8245150000001 146.580742 C 287.45814800000005 147.441228 287.6092440000001 148.02370499999998 287.5460070000001 148.26064399999998 C 287.4827810000001 148.497562 287.06152900000006 148.92731099999997 286.0833990000001 149.35761899999997 C 284.7800200000001 149.92945299999997 282.8781990000001 150.35429899999997 280.4290490000001 150.62125799999998 C 275.2892080000001 151.18075299999998 268.12912000000006 151.013671 259.1473670000001 150.12571799999998 C 240.4697400000001 148.27837899999997 216.2194210000001 143.53375099999997 190.8632970000001 136.76650499999997 C 188.8291070000001 136.22360699999996 186.80777100000012 135.67287799999997 184.8011170000001 135.11524899999998 C 184.82869100000008 135.38231499999998 184.84297600000008 135.65332899999999 184.84297600000008 135.92767999999998 C 184.84297600000008 137.29293299999998 184.49269100000006 138.576249 183.87761900000007 139.693245 C 185.79338800000008 140.224512 187.72204200000007 140.749471 189.66210600000008 141.26725199999998 C 215.2543100000001 148.09749899999997 239.7684490000001 152.889796 258.68896000000007 154.76101699999998 C 267.9897720000001 155.68044899999998 275.4741650000001 155.845847 280.93243200000006 155.25215799999998 C 287.56464300000005 154.530601 291.1995610000001 152.63611899999998 292.04674300000005 149.46183999999997 C 292.893926 146.28753899999998 290.68639300000007 142.83379199999996 285.2956970000001 138.90344099999996 Z" stroke-linecap="round" />
</g>
		<g transform="matrix(0.763746644105562 0 0 0.763746644105562 -36.58938686460584 -25.317608560173653)"  >
<linearGradient id="SVGID_18_396722" gradientUnits="userSpaceOnUse" gradientTransform="matrix(1 0 0 1 0 0)"  x1="174.12683" y1="133.34069" x2="100.664495" y2="96.609522">
<stop offset="0%" style="stop-color:rgb(58,125,178);stop-opacity: 1"/>
<stop offset="100%" style="stop-color:rgb(76,72,171);stop-opacity: 1"/>
</linearGradient>
<path style="stroke: none; stroke-width: 1; stroke-dasharray: none; stroke-linecap: butt; stroke-dashoffset: 0; stroke-linejoin: miter; stroke-miterlimit: 4; fill: url(#SVGID_18_396722); fill-rule: nonzero; opacity: 1;"  paint-order="stroke"  transform=" translate(-139.59224494667694, -116.85077450000001)" d="M 175.706228 142.420233 C 179.480086 142.420233 182.55038000000002 139.34998199999998 182.55038000000002 135.576124 C 182.55038000000002 131.802266 179.48008600000003 128.732015 175.706228 128.732015 C 175.575892 128.732015 175.446619 128.73649999999998 175.318058 128.74372 C 173.464024 128.847941 171.804823 129.692935 170.632858 130.987485 C 153.209745 125.669124 137.447409 119.926797 125.00337400000001 114.324311 C 116.773621 110.618732 110.48246900000001 107.195841 106.30493200000001 104.14964499999999 C 104.31450000000001 102.697819 102.87728800000001 101.381823 102.03303400000001 100.23680399999999 C 101.39854300000002 99.37612399999999 101.24744100000001 98.79362599999999 101.31067800000001 98.556687 C 101.37390900000001 98.319769 101.795162 97.89003 102.774144 97.459948 C 104.076665 96.887878 105.978491 96.463032 108.42764100000001 96.196073 C 111.15207500000001 95.89980299999999 114.44359000000001 95.806718 118.27274500000001 95.918085 C 116.89652100000002 95.072297 115.65724800000001 94.24850400000001 114.55940400000001 93.446984 C 113.54436600000001 92.706684 112.65162900000001 91.985395 111.87799900000002 91.281316 C 110.46020600000001 91.33775 109.14221900000001 91.432659 107.92426400000002 91.565162 C 101.29289500000002 92.286966 97.65711900000002 94.181212 96.80994200000002 97.355512 C 95.96275900000002 100.529791 98.17115600000002 103.98377500000001 103.56099300000002 107.913869 C 107.99840700000003 111.148595 114.56904400000002 114.73433100000001 123.09113500000002 118.57159700000001 C 135.60920600000003 124.207525 151.415455 129.976203 168.868647 135.3188 C 168.865466 135.404332 168.862118 135.489831 168.862118 135.57612400000002 C 168.862118 137.069621 169.34437 138.45185800000002 170.159392 139.57828400000002 C 171.403815 141.29815200000002 173.425871 142.42023300000002 175.706226 142.42023300000002 Z M 172.198186 135.576125 C 172.198186 133.63868399999998 173.768787 132.068088 175.706223 132.068088 C 177.64365899999999 132.068088 179.21425399999998 133.638683 179.21425399999998 135.576125 C 179.21425399999998 137.513545 177.64365299999997 139.084151 175.706223 139.084151 C 173.76879300000002 139.084151 172.198186 137.513545 172.198186 135.576125 Z" stroke-linecap="round" />
</g>
		<g transform="matrix(0.763746644105562 0 0 0.763746644105562 50.59050397573492 9.97560260254619)"  >
<linearGradient id="SVGID_19_396723" gradientUnits="userSpaceOnUse" gradientTransform="matrix(1 0 0 1 0 0)"  x1="287.116253" y1="169.596244" x2="187.240495" y2="142.151046">
<stop offset="0%" style="stop-color:rgb(58,125,178);stop-opacity: 1"/>
<stop offset="53.88889999999999%" style="stop-color:rgb(76,72,171);stop-opacity: 1"/>
<stop offset="100%" style="stop-color:rgb(19,19,135);stop-opacity: 1"/>
</linearGradient>
<path style="stroke: none; stroke-width: 1; stroke-dasharray: none; stroke-linecap: butt; stroke-dashoffset: 0; stroke-linejoin: miter; stroke-miterlimit: 4; fill: url(#SVGID_19_396723); fill-rule: nonzero; opacity: 1;"  paint-order="stroke"  transform=" translate(-253.73990309113765, -163.0614013290742)" d="M 289.607712 160.25379 C 288.420732 158.698913 286.632273 157.07995100000002 284.14016499999997 155.305934 C 283.611226 154.929153 283.052739 154.547223 282.46530499999994 154.161204 C 281.68601599999994 154.286165 280.85142899999994 154.38998899999999 279.96259599999996 154.472076 C 278.274368 154.628269 276.38926299999997 154.71098899999998 274.31279499999994 154.71990499999998 C 277.11464899999993 156.25364599999997 279.4952839999999 157.71591099999998 281.43817499999994 159.10046599999998 C 286.08359199999995 162.40797799999999 286.79004199999997 164.297632 286.67014599999993 164.74685499999998 C 286.5502599999999 165.19607799999997 284.99616599999996 166.482419 279.3204549999999 167.035349 C 274.0107099999999 167.55314099999998 266.6087579999999 167.324238 257.32024199999995 166.355324 C 245.67693799999995 165.141446 231.93091199999995 162.852759 217.09722999999997 159.691076 C 217.12011999999996 159.934764 217.13234099999997 160.181563 217.13234099999997 160.431226 C 217.13234099999997 161.817776 216.77092399999998 163.119729 216.13788199999996 164.248848 C 231.13281599999996 167.444231 245.04204999999996 169.758925 256.83775999999995 170.98874600000002 C 266.4351209999999 171.99006100000003 274.15174299999995 172.21924300000003 279.77213599999993 171.67247200000003 C 282.81702299999995 171.37530000000004 285.17410799999993 170.86364600000002 286.9782409999999 170.10615700000002 C 289.2822059999999 169.13911000000002 290.69268199999993 167.73984600000003 291.1708839999999 165.94805100000002 C 291.64909699999987 164.156245 291.12342999999987 162.24024100000003 289.6077129999999 160.25379 Z" stroke-linecap="round" />
</g>
		<g transform="matrix(0.763746644105562 0 0 0.763746644105562 -27.10416697668461 -10.261709814378804)"  >
<linearGradient id="SVGID_20_396724" gradientUnits="userSpaceOnUse" gradientTransform="matrix(1 0 0 1 0 0)"  x1="202.04766" y1="152.213324" x2="92.473223" y2="115.894866">
<stop offset="0%" style="stop-color:rgb(58,125,178);stop-opacity: 1"/>
<stop offset="100%" style="stop-color:rgb(76,72,171);stop-opacity: 1"/>
</linearGradient>
<path style="stroke: none; stroke-width: 1; stroke-dasharray: none; stroke-linecap: butt; stroke-dashoffset: 0; stroke-linejoin: miter; stroke-miterlimit: 4; fill: url(#SVGID_20_396724); fill-rule: nonzero; opacity: 1;"  paint-order="stroke"  transform=" translate(-152.01157269250237, -136.5639855)" d="M 207.995597 166.923789 C 211.769455 166.923789 214.839663 163.853538 214.839663 160.07968 C 214.839663 156.305822 211.769455 153.235571 207.995597 153.235571 C 207.865261 153.235571 207.735982 153.24005599999998 207.607422 153.247276 C 205.37957400000002 153.372516 203.43403800000002 154.568261 202.276138 156.327065 C 197.154295 155.096042 191.949275 153.77631200000002 186.697655 152.374719 C 160.459217 145.371993 136.239395 137.179625 118.500576 129.306038 C 109.964495 125.517782 103.432841 122.027974 99.08723499999999 118.933293 C 94.441824 115.625781 93.735362 113.73612700000001 93.85525399999999 113.286904 C 93.97514499999998 112.83766000000001 95.52923899999999 111.55134000000001 101.20495599999998 110.99841 C 103.57937299999998 110.76610600000001 106.37203799999997 110.68452300000001 109.56551099999999 110.750849 C 107.76963899999998 109.70846300000001 106.17643699999999 108.697428 104.79056799999998 107.720789 C 104.06083599999998 107.20674199999999 103.38895999999998 106.700848 102.77557199999998 106.204182 C 102.07391699999998 106.24617500000001 101.39937999999998 106.299026 100.75303899999999 106.362134 C 97.70838799999999 106.658447 95.35191999999999 107.171207 93.54718099999998 107.927601 C 91.24321099999997 108.89464799999999 89.83272899999999 110.29390099999999 89.35451699999999 112.085707 C 88.87630999999999 113.877513 89.40199299999999 115.793517 90.91770399999999 117.779968 C 92.10530099999998 119.33591799999999 93.89313199999998 120.953807 96.38500999999998 122.728672 C 100.98552599999998 126.00328900000001 107.79014699999998 129.649633 116.61098099999998 133.563922 C 134.565319 141.533234 159.02959499999997 149.81176599999998 185.49646399999997 156.875454 C 190.78769599999998 158.287614 196.03348099999997 159.617537 201.19702699999996 160.858366 C 201.33296899999996 162.052674 201.77745499999997 163.154091 202.44874099999996 164.08183799999998 C 203.69316999999995 165.80171699999997 205.71524099999996 166.92378699999998 207.99559699999995 166.92378699999998 Z M 204.487555 160.079669 C 204.487555 158.142239 206.05814999999998 156.571643 207.99558599999997 156.571643 C 209.93302199999997 156.571643 211.50361699999996 158.142238 211.50361699999996 160.079669 C 211.50361699999996 162.0171 209.93301599999995 163.587695 207.99558599999997 163.587695 C 206.058156 163.587695 204.487555 162.0171 204.487555 160.079669 Z" stroke-linecap="round" />
</g>
		<g transform="matrix(0.763746644105562 0 0 0.763746644105562 36.3721052120917 -29.31762106784879)"  >
<linearGradient id="SVGID_21_396725" gradientUnits="userSpaceOnUse" gradientTransform="matrix(1 0 0 1 0 0)"  x1="286.790555" y1="119.367419" x2="190.83554" y2="94.398479">
<stop offset="0%" style="stop-color:rgb(58,125,178);stop-opacity: 1"/>
<stop offset="53.88889999999999%" style="stop-color:rgb(76,72,171);stop-opacity: 1"/>
<stop offset="100%" style="stop-color:rgb(19,19,135);stop-opacity: 1"/>
</linearGradient>
<path style="stroke: none; stroke-width: 1; stroke-dasharray: none; stroke-linecap: butt; stroke-dashoffset: 0; stroke-linejoin: miter; stroke-miterlimit: 4; fill: url(#SVGID_21_396725); fill-rule: nonzero; opacity: 1;"  paint-order="stroke"  transform=" translate(-235.12325989751076, -111.61341923494399)" d="M 279.964377 106.000117 C 278.506586 104.880568 276.776343 103.718318 274.78211400000004 102.519289 C 274.58293000000003 102.618039 274.37229900000006 102.711939 274.15216100000004 102.80056 C 272.82959800000003 103.33177400000001 271.116554 103.68329800000001 268.915899 103.874661 C 268.56023300000004 103.905282 268.192679 103.932705 267.81306600000005 103.954206 C 271.67992300000003 105.993251 274.842143 107.938824 277.12647300000003 109.693787 C 280.758215 112.484247 281.28451500000006 114.104754 281.18048600000003 114.494517 C 281.07669400000003 114.883464 279.81266800000003 116.027089 275.273683 116.635959 C 270.971422 117.213393 264.72605500000003 117.173996 257.214185 116.521888 C 241.324582 115.142075 220.726283 111.22024300000001 199.213617 105.478774 C 194.460261 104.210157 189.790093 102.88669300000001 185.242047 101.522158 C 185.27935200000002 101.831861 185.29901800000002 102.147014 185.29901800000002 102.466803 C 185.29901800000002 103.790117 184.96977700000002 105.03637499999999 184.389462 106.128908 C 188.830803 107.456299 193.383376 108.744057 198.012426 109.9795 C 219.778999 115.78873300000001 240.660716 119.759844 256.810679 121.162734 C 264.77071 121.853509 271.19126 121.884162 275.89347599999996 121.253351 C 281.68938399999996 120.475049 284.89093599999995 118.656871 285.68123399999996 115.695712 C 286.47174599999994 112.733738 284.60193 109.562055 279.96437699999996 106.000116 Z" stroke-linecap="round" />
</g>
		<g transform="matrix(0.763746644105562 0 0 0.763746644105562 53.335887158556375 -41.446509361695064)"  >
<linearGradient id="SVGID_22_396726" gradientUnits="userSpaceOnUse" gradientTransform="matrix(1 0 0 1 0 0)"  x1="276.253685" y1="99.156727" x2="240.072797" y2="92.140661">
<stop offset="0%" style="stop-color:rgb(58,125,178);stop-opacity: 1"/>
<stop offset="53.88889999999999%" style="stop-color:rgb(76,72,171);stop-opacity: 1"/>
<stop offset="100%" style="stop-color:rgb(19,19,135);stop-opacity: 1"/>
</linearGradient>
<path style="stroke: none; stroke-width: 1; stroke-dasharray: none; stroke-linecap: butt; stroke-dashoffset: 0; stroke-linejoin: miter; stroke-miterlimit: 4; fill: url(#SVGID_22_396726); fill-rule: nonzero; opacity: 1;"  paint-order="stroke"  transform=" translate(-257.3345286178221, -95.73264465157328)" d="M 277.480466 95.278809 C 276.594841 94.09456399999999 275.27293299999997 92.874828 273.437825 91.54997 C 271.29454799999996 90.002785 268.49227499999995 88.347924 265.06758199999996 86.605214 C 264.30313099999995 88.35155 262.41299399999997 89.209805 260.722631 89.650144 C 264.35148699999996 91.39824 267.33967099999995 93.05176999999999 269.642617 94.58698199999999 C 273.309486 97.03113199999999 274.01356499999997 98.370689 274.14523099999997 98.739702 C 273.847223 98.994022 272.56927099999996 99.804597 268.17216599999995 100.096576 C 264.20191399999993 100.360552 258.8827059999999 100.129857 252.36237599999995 99.413053 C 247.54415799999995 98.88332000000001 242.24564599999997 98.104459 236.61086599999996 97.105655 C 236.65705399999996 97.449412 236.68137699999997 97.800078 236.68137699999997 98.156452 C 236.68137699999997 99.432451 236.37555799999996 100.63695200000001 235.83344299999996 101.700924 C 242.15841899999995 102.821031 248.07049999999995 103.668106 253.38658599999997 104.205714 C 260.303749 104.904708 265.87638599999997 105.044743 269.94937899999996 104.620797 C 272.200611 104.38651899999999 273.95448999999996 103.987701 275.312437 103.40222 C 277.152287 102.609691 278.287168 101.4489 278.686737 99.95177699999999 C 279.086295 98.45463199999999 278.680739 96.882706 277.480466 95.278808 Z" stroke-linecap="round" />
</g>
		<g transform="matrix(0.763746644105562 0 0 0.763746644105562 -2.9392133264478844 -53.14617868090858)"  >
<linearGradient id="SVGID_23_396727" gradientUnits="userSpaceOnUse" gradientTransform="matrix(1 0 0 1 0 0)"  x1="229.235607" y1="94.769216" x2="136.16956" y2="61.752437">
<stop offset="0%" style="stop-color:rgb(58,125,178);stop-opacity: 1"/>
<stop offset="100%" style="stop-color:rgb(76,72,171);stop-opacity: 1"/>
</linearGradient>
<path style="stroke: none; stroke-width: 1; stroke-dasharray: none; stroke-linecap: butt; stroke-dashoffset: 0; stroke-linejoin: miter; stroke-miterlimit: 4; fill: url(#SVGID_23_396727); fill-rule: nonzero; opacity: 1;"  paint-order="stroke"  transform=" translate(-183.65158556422722, -80.41386137506514)" d="M 227.54459 104.648994 C 231.318448 104.648994 234.388742 101.578743 234.388742 97.804885 C 234.388742 94.031027 231.31844800000002 90.960776 227.54459 90.960776 C 227.414265 90.960776 227.285002 90.965261 227.156453 90.972492 C 224.893172 91.099695 222.921613 92.331984 221.770929 94.136836 C 215.820776 92.82109700000001 209.66505 91.31891 203.436372 89.65656 C 185.454664 84.85744 168.66331200000002 79.20437799999999 156.156184 73.736798 C 150.144945 71.10907499999999 145.418165 68.65859499999999 142.107424 66.451427 C 138.44056600000002 64.007277 137.736476 62.667719999999996 137.604815 62.29870699999999 C 137.902834 62.04438699999999 139.18077 61.23381199999999 143.577869 60.941832999999995 C 146.339527 60.758303 149.75341699999998 60.813407 153.771343 61.10705899999999 C 152.525418 59.88215199999999 151.314292 58.196197999999995 151.521672 56.30117899999999 C 147.684046 56.10567499999999 144.42985199999998 56.14412799999999 141.800659 56.41760999999999 C 139.549438 56.65188799999999 137.795559 57.05072799999999 136.437612 57.63618699999999 C 134.597762 58.428715999999994 133.462876 59.58950699999999 133.063312 61.086651999999994 C 132.66374299999998 62.583774999999996 133.069304 64.15567999999999 134.26957199999998 65.759599 C 135.15520199999997 66.943844 136.47710999999998 68.163558 138.31221799999997 69.488417 C 141.63230899999996 71.88551 146.53364999999997 74.54087 152.88006799999997 77.381757 C 165.74291499999995 83.13891199999999 183.27095299999996 89.09594799999999 202.23517799999996 94.157285 C 208.53913599999996 95.839719 214.75453699999997 97.357035 220.75909699999997 98.68552 C 220.90822499999996 99.84051699999999 221.34569899999997 100.90581999999999 221.99779599999997 101.80705499999999 C 223.24220299999996 103.526934 225.26423699999995 104.64899299999999 227.54458699999998 104.64899299999999 Z M 224.036596 97.804885 C 224.036596 95.867465 225.607191 94.296848 227.544627 94.296848 C 229.48205199999998 94.296848 231.05265799999998 95.867465 231.05265799999998 97.804885 C 231.05265799999998 99.742326 229.48205199999998 101.312922 227.544627 101.312922 C 225.607191 101.312922 224.036596 99.742327 224.036596 97.804885 Z" stroke-linecap="round" />
</g>
		<g transform="matrix(0.763746644105562 0 0 0.763746644105562 -7.115291984708506 -62.47763218887704)"  >
<linearGradient id="SVGID_24_396728" gradientUnits="userSpaceOnUse" gradientTransform="matrix(1 0 0 1 0 0)"  x1="198.391657" y1="75.693689" x2="152.030596" y2="53.682503">
<stop offset="0%" style="stop-color:rgb(58,125,178);stop-opacity: 1"/>
<stop offset="100%" style="stop-color:rgb(76,72,171);stop-opacity: 1"/>
</linearGradient>
<path style="stroke: none; stroke-width: 1; stroke-dasharray: none; stroke-linecap: butt; stroke-dashoffset: 0; stroke-linejoin: miter; stroke-miterlimit: 4; fill: url(#SVGID_24_396728); fill-rule: nonzero; opacity: 1;"  paint-order="stroke"  transform=" translate(-178.1837007748266, -68.19586528960055)" d="M 199.365883 85.973899 C 203.139741 85.973899 206.210035 82.903648 206.210035 79.12979 C 206.210035 75.355932 203.13974100000001 72.285681 199.365883 72.285681 C 199.235558 72.285681 199.10629 72.290166 198.97773999999998 72.297397 C 197.03120599999997 72.40679 195.30001399999998 73.333302 194.12138599999997 74.73867100000001 C 184.96618799999996 71.89368600000002 176.57972799999996 68.80714900000001 169.77463499999996 65.75565200000001 C 158.47889099999998 60.691440000000014 155.69655799999995 57.629193000000015 155.03684799999996 56.610754000000014 C 156.02750899999995 56.10282200000002 159.42787499999997 54.99174900000001 169.50782599999997 55.76981600000001 C 168.30117399999997 54.649988000000015 166.97048399999997 52.921205000000015 167.51374099999995 50.88570100000001 C 167.54569199999995 50.76596500000001 167.58314099999996 50.64951300000001 167.62562799999995 50.53803900000001 C 163.66695799999994 50.32571200000001 160.37284699999995 50.39444200000001 157.80103799999995 50.74601000000001 C 156.19581499999995 50.96619000000001 151.30879699999994 51.634993000000016 150.31701999999996 55.35108600000001 C 149.32501799999994 59.06801600000001 153.22887299999996 62.08301300000001 154.51090699999995 63.07377000000001 C 157.13883899999993 65.102365 161.02247099999994 67.32054000000001 166.05618599999994 69.66733500000001 C 173.30350099999993 73.045207 182.44057199999995 76.46535200000001 192.54019999999994 79.605513 C 192.63072599999995 80.916338 193.09141799999995 82.126268 193.81907399999994 83.131939 C 195.06348099999994 84.85181800000001 197.08552599999993 85.973898 199.36588199999994 85.973898 Z M 195.857868 79.129769 C 195.857868 77.192349 197.428469 75.621754 199.365905 75.621754 C 201.303341 75.621754 202.873936 77.192349 202.873936 79.129769 C 202.873936 81.06721 201.30333499999998 82.637806 199.365905 82.637806 C 197.42847500000002 82.637806 195.857868 81.067211 195.857868 79.129769 Z" stroke-linecap="round" />
</g>
		<g transform="matrix(0.763746644105562 0 0 0.763746644105562 37.789434884785805 -51.59103167044387)"  >
<linearGradient id="SVGID_25_396729" gradientUnits="userSpaceOnUse" gradientTransform="matrix(1 0 0 1 0 0)"  x1="262.376694" y1="87.220951" x2="215.028868" y2="74.50356">
<stop offset="0%" style="stop-color:rgb(58,125,178);stop-opacity: 1"/>
<stop offset="53.88889999999999%" style="stop-color:rgb(76,72,171);stop-opacity: 1"/>
<stop offset="100%" style="stop-color:rgb(19,19,135);stop-opacity: 1"/>
</linearGradient>
<path style="stroke: none; stroke-width: 1; stroke-dasharray: none; stroke-linecap: butt; stroke-dashoffset: 0; stroke-linejoin: miter; stroke-miterlimit: 4; fill: url(#SVGID_25_396729); fill-rule: nonzero; opacity: 1;"  paint-order="stroke"  transform=" translate(-236.97901885060423, -82.45006935380653)" d="M 266.586302 86.381944 C 265.5943 90.09887400000001 260.707277 90.76767600000001 259.101211 90.98766400000001 C 255.812797 91.43723000000001 251.33949499999997 91.425042 245.80582499999997 90.95155000000001 C 235.14331099999998 90.03799800000002 221.50803099999996 87.50286600000001 207.21214999999998 83.784692 C 208.02753199999998 82.55032200000001 208.50266 81.07141600000001 208.50266 79.48133700000001 C 208.50266 79.26120000000002 208.49308399999998 79.04329400000002 208.47524199999998 78.82774800000001 C 221.654702 82.25583200000001 234.38921399999998 84.68878100000002 244.531007 85.70722 C 256.84797399999997 86.94495900000001 260.786179 85.676321 261.865622 85.122061 C 261.259799 84.188038 258.86526 81.530381 249.73810799999998 77.182308 C 251.34228499999998 76.812651 253.35742599999998 75.976842 253.90067699999997 73.941316 C 253.93263899999997 73.821602 253.95819499999996 73.701952 253.97690599999999 73.584148 C 257.515778 75.372821 260.337577 77.073817 262.391342 78.659883 C 263.674229 79.650877 267.578079 82.665852 266.586302 86.38194499999999 Z" stroke-linecap="round" />
</g>
		<g transform="matrix(0.763746644105562 0 0 0.763746644105562 41.69011973669859 -60.4190813310359)"  >
<linearGradient id="SVGID_26_396730" gradientUnits="userSpaceOnUse" gradientTransform="matrix(1 0 0 1 0 0)"  x1="254.120962" y1="73.910659" x2="229.990527" y2="68.693268">
<stop offset="0%" style="stop-color:rgb(58,125,178);stop-opacity: 1"/>
<stop offset="53.88889999999999%" style="stop-color:rgb(76,72,171);stop-opacity: 1"/>
<stop offset="100%" style="stop-color:rgb(19,19,135);stop-opacity: 1"/>
</linearGradient>
<path style="stroke: none; stroke-width: 1; stroke-dasharray: none; stroke-linecap: butt; stroke-dashoffset: 0; stroke-linejoin: miter; stroke-miterlimit: 4; fill: url(#SVGID_26_396730); fill-rule: nonzero; opacity: 1;"  paint-order="stroke"  transform=" translate(-242.08632096710784, -70.89119740494093)" d="M 255.536236 74.377834 C 254.672284 77.61496399999999 250.660414 78.164395 249.341499 78.344556 C 246.798106 78.691875 243.351718 78.68359199999999 239.097824 78.319665 C 235.879299 78.044059 232.307038 77.575223 228.490286 76.934145 C 229.020255 75.87963500000001 229.31904699999998 74.688932 229.31904699999998 73.428276 C 229.31904699999998 72.891548 229.26486599999998 72.367479 229.16185699999997 71.861178 C 232.21572499999996 72.37951699999999 235.10874299999998 72.786339 237.77069199999997 73.06683799999999 C 245.50854699999996 73.88116799999999 248.97558799999996 73.40647499999999 250.41218899999996 73.010275 C 249.36405199999996 71.950959 246.59459999999996 69.81181299999999 239.47893999999997 66.66283299999999 C 238.86307399999995 66.39023099999999 238.23079399999997 66.117757 237.58229099999997 65.844619 C 238.29843999999997 65.83017799999999 238.95061299999998 65.789536 239.53541799999996 65.72181499999999 C 240.47798099999997 65.61225099999999 243.22256399999998 65.294973 244.12178199999997 63.18342199999999 C 247.57010099999997 64.834227 250.26522299999996 66.403149 252.14163799999997 67.85274299999999 C 253.19537499999998 68.66615099999999 256.40018899999995 71.140706 255.53623699999997 74.37783599999999 Z" stroke-linecap="round" />
</g>
		<g transform="matrix(0.763746644105562 0 0 0.763746644105562 -27.882596624732912 -48.032908550642844)"  >
<linearGradient id="SVGID_27_396731" gradientUnits="userSpaceOnUse" gradientTransform="matrix(1 0 0 1 0 0)"  x1="179.188914" y1="99.883041" x2="119.758711" y2="68.723456">
<stop offset="0%" style="stop-color:rgb(58,125,178);stop-opacity: 1"/>
<stop offset="100%" style="stop-color:rgb(76,72,171);stop-opacity: 1"/>
</linearGradient>
<path style="stroke: none; stroke-width: 1; stroke-dasharray: none; stroke-linecap: butt; stroke-dashoffset: 0; stroke-linejoin: miter; stroke-miterlimit: 4; fill: url(#SVGID_27_396731); fill-rule: nonzero; opacity: 1;"  paint-order="stroke"  transform=" translate(-150.99234772561573, -87.10884349999999)" d="M 176.162253 108.959345 C 179.93611099999998 108.959345 183.006405 105.889094 183.006405 102.115236 C 183.006405 98.34137799999999 179.936111 95.27112699999999 176.162253 95.27112699999999 C 176.031923 95.27112699999999 175.90265399999998 95.275612 175.7741 95.282843 C 174.112721 95.376228 172.608844 96.065437 171.470745 97.139023 C 160.912721 93.57337199999999 151.362375 89.84157099999999 143.42370499999998 86.15258 C 136.58586699999998 82.974932 131.151414 79.897128 127.70901199999999 77.252732 C 124.07703999999998 74.46312999999999 123.55095999999999 72.841765 123.65476299999999 72.452818 C 123.75879099999999 72.06305499999999 125.02258599999999 70.920289 129.561796 70.31056 C 132.416802 69.927235 136.12795999999997 69.816082 140.49659499999999 69.975 C 140.17817499999998 69.767201 139.873166 69.56026 139.58004999999997 69.356495 C 137.76740299999997 68.09403599999999 136.45732399999997 66.93569099999999 135.57536299999998 65.81607799999999 C 135.42864899999998 65.62956499999999 135.29280999999997 65.443203 135.16930799999997 65.25834199999998 C 132.84283399999998 65.30419799999999 130.76357099999998 65.44974699999999 128.94178399999998 65.69400299999998 C 123.14611199999999 66.47144699999998 119.94454899999998 68.28964599999998 119.15403199999999 71.25161999999997 C 118.36373499999999 74.21277799999997 120.233567 77.38446099999997 124.87087799999999 80.94725799999998 C 128.633444 83.83719699999997 134.21542599999998 87.00988899999997 141.461084 90.37733199999998 C 149.389454 94.06123799999997 158.884053 97.78321099999998 169.363036 101.34201699999998 C 169.334336 101.59599399999999 169.31814599999998 101.85370399999998 169.31814599999998 102.11523399999999 C 169.31814599999998 103.60873099999999 169.80039799999997 104.99098999999998 170.61542599999999 106.11740499999999 C 171.85984399999998 107.837262 173.88189899999998 108.95934299999999 176.162255 108.95934299999999 Z M 172.654232 102.115236 C 172.654232 100.17779499999999 174.22483300000002 98.607199 176.162263 98.607199 C 178.09969299999997 98.607199 179.67029399999998 100.17779399999999 179.67029399999998 102.115236 C 179.67029399999998 104.052656 178.099699 105.623273 176.162263 105.623273 C 174.224827 105.623273 172.654232 104.052656 172.654232 102.115236 Z" stroke-linecap="round" />
</g>
		<g transform="matrix(0.763746644105562 0 0 0.763746644105562 6.781503443162308 -66.38906422485087)"  >
<linearGradient id="SVGID_28_396732" gradientUnits="userSpaceOnUse" gradientTransform="matrix(1 0 0 1 0 0)"  x1="223.154329" y1="73.229598" x2="165.787674" y2="48.260658">
<stop offset="0%" style="stop-color:rgb(58,125,178);stop-opacity: 1"/>
<stop offset="100%" style="stop-color:rgb(76,72,171);stop-opacity: 1"/>
</linearGradient>
<path style="stroke: none; stroke-width: 1; stroke-dasharray: none; stroke-linecap: butt; stroke-dashoffset: 0; stroke-linejoin: miter; stroke-miterlimit: 4; fill: url(#SVGID_28_396732); fill-rule: nonzero; opacity: 1;"  paint-order="stroke"  transform=" translate(-196.37925755418973, -63.074491511841316)" d="M 220.182271 79.920817 C 223.95612899999998 79.920817 227.026423 76.850566 227.026423 73.076708 C 227.026423 69.30284999999999 223.956129 66.232599 220.182271 66.232599 C 220.051941 66.232599 219.922678 66.237084 219.79412299999998 66.244315 C 217.76284099999998 66.358471 215.966684 67.362962 214.78767599999998 68.872403 C 212.98977599999998 68.43629100000001 211.17498399999997 67.97462300000001 209.35280899999998 67.48829900000001 C 199.03593499999997 64.73485400000001 189.29903799999997 61.42390900000001 181.93525499999998 58.165042000000014 C 174.819821 55.01520400000001 172.050379 52.87607900000001 171.00223699999998 51.816741000000015 C 172.43883799999998 51.420541000000014 175.90588499999998 50.945847000000015 183.64435099999997 51.761251000000016 C 184.31415699999997 51.83176200000002 184.99811899999997 51.91059900000002 185.69645799999998 51.996924000000014 C 185.08276499999997 51.62754600000002 184.53757099999999 51.267353000000014 184.064273 50.91724400000001 C 183.30165599999998 50.35257700000001 181.080155 48.70990400000001 181.352666 46.43111000000001 C 177.540361 46.14413100000001 174.421888 46.16149000000001 172.072706 46.483317000000014 C 170.754639 46.66371400000001 166.742141 47.21207300000001 165.87818900000002 50.44918100000001 C 165.014237 53.68633200000001 168.21967300000003 56.16196100000001 169.272568 56.97513200000001 C 171.30465 58.54358200000001 174.296852 60.25367500000001 178.166365 62.05782000000001 C 185.93714200000002 65.680013 196.54415500000002 69.36417700000001 208.033766 72.430608 C 209.82826500000002 72.90955000000001 211.6116 73.36467400000001 213.37603600000003 73.79456300000001 C 213.50357200000002 75.01241100000001 213.95275700000002 76.13530700000001 214.63546900000003 77.07887900000001 C 215.87987600000002 78.79873600000002 217.90191600000003 79.92081700000001 220.18227100000001 79.92081700000001 Z M 216.674261 73.076708 C 216.674261 71.13926699999999 218.244862 69.568671 220.182292 69.568671 C 222.11972199999997 69.568671 223.690329 71.13926599999999 223.690329 73.076708 C 223.690329 75.01415 222.11972799999998 76.584745 220.182292 76.584745 C 218.244856 76.584745 216.674261 75.01415 216.674261 73.076708 Z" stroke-linecap="round" />
</g>
		<g transform="matrix(0.763746644105562 0 0 0.763746644105562 19.369909912784692 -73.05914626312682)"  >
<linearGradient id="SVGID_29_396733" gradientUnits="userSpaceOnUse" gradientTransform="matrix(1 0 0 1 0 0)"  x1="235.909442" y1="66.699065" x2="189.344225" y2="44.981674">
<stop offset="0%" style="stop-color:rgb(58,125,178);stop-opacity: 1"/>
<stop offset="100%" style="stop-color:rgb(76,72,171);stop-opacity: 1"/>
</linearGradient>
<path style="stroke: none; stroke-width: 1; stroke-dasharray: none; stroke-linecap: butt; stroke-dashoffset: 0; stroke-linejoin: miter; stroke-miterlimit: 4; fill: url(#SVGID_29_396733); fill-rule: nonzero; opacity: 1;"  paint-order="stroke"  transform=" translate(-212.86169524053128, -54.3411215)" d="M 243.093075 57.670972 C 241.594482 56.513657 239.401455 55.258859 236.574988 53.941252999999996 C 230.948995 51.318659 223.276571 48.653599 214.971205 46.436989 C 206.665845 44.220400999999995 198.685874 42.708020999999995 192.501169 42.178501999999995 C 189.394048 41.91248699999999 186.867408 41.907658999999995 184.991444 42.164339999999996 C 183.93070600000001 42.309439 180.702729 42.75104399999999 179.953507 45.558327 C 179.20428 48.365589 181.782923 50.356932 182.630304 51.011272 C 184.128897 52.168586999999995 186.321924 53.423384999999996 189.148396 54.740969 C 191.987786 56.064583 195.348873 57.398905 199.04899 58.681019 C 199.13892 59.993239 199.599832 61.204456 200.328181 62.211071 C 201.57261 63.930927999999994 203.594681 65.053009 205.875032 65.053009 C 209.64889 65.053009 212.719098 61.982758000000004 212.719098 58.2089 C 212.719098 54.435041999999996 209.64889 51.364791 205.875032 51.364791 C 205.74469100000002 51.364791 205.615417 51.369276 205.486852 51.376507 C 203.541198 51.485878 201.810681 52.411618999999995 200.632075 53.815957999999995 C 197.77301899999998 52.824535 195.12371499999998 51.80257699999999 192.796822 50.787549999999996 C 189.18289 49.211074999999994 187.10154699999998 47.988656999999996 185.917608 47.150079 C 187.36195 47.012941 189.775619 46.990196 193.694479 47.424119 C 199.358603 48.051356999999996 206.446426 49.455911 213.652231 51.379039 C 220.858078 53.302189 227.703148 55.616175 232.926562 57.894691 C 236.540494 59.471166000000004 238.621886 60.693606 239.80576499999998 61.532162 C 238.36147099999997 61.6693 235.94777 61.692045 232.02889899999997 61.258122 C 227.13353399999997 60.716008 221.17452999999998 59.592918 214.99516799999998 58.05657 C 215.00577399999997 58.223234 215.01177599999997 58.391121 215.01177599999997 58.560468 C 215.01177599999997 60.204986 214.50361899999996 61.730606 213.63635699999998 62.989739 C 220.89054399999998 64.80017 227.75742499999998 66.035871 233.22221999999996 66.503741 C 236.32933599999996 66.769756 238.85596999999996 66.774584 240.73193399999997 66.517903 C 241.79271999999997 66.372826 245.02065499999998 65.931177 245.76988199999997 63.123916 C 246.51910899999996 60.316655 243.94050299999998 58.325311 243.09307399999997 57.670971 Z M 202.366991 58.208902 C 202.366991 56.271461 203.93759200000002 54.700865 205.875022 54.700865 C 207.81245199999998 54.700865 209.383053 56.27146 209.383053 58.208902 C 209.383053 60.146344000000006 207.812458 61.716939 205.875022 61.716939 C 203.937586 61.716939 202.366991 60.146344000000006 202.366991 58.208902 Z" stroke-linecap="round" />
</g>
		<g transform="matrix(0.763746644105562 0 0 0.763746644105562 -26.969034197892142 2.6821270167930322)"  >
<linearGradient id="SVGID_30_396734" gradientUnits="userSpaceOnUse" gradientTransform="matrix(1 0 0 1 0 0)"  x1="92.369788" y1="110.550715" x2="197.400854" y2="163.066248">
<stop offset="0%" style="stop-color:rgb(91,235,255);stop-opacity: 1"/>
<stop offset="49.4444%" style="stop-color:rgb(58,125,178);stop-opacity: 1"/>
<stop offset="100%" style="stop-color:rgb(76,72,171);stop-opacity: 1"/>
</linearGradient>
<path style="stroke: none; stroke-width: 1; stroke-dasharray: none; stroke-linecap: butt; stroke-dashoffset: 0; stroke-linejoin: miter; stroke-miterlimit: 4; fill: url(#SVGID_30_396734); fill-rule: nonzero; opacity: 1;"  paint-order="stroke"  transform=" translate(-152.1885067318665, -153.51180049999996)" d="M 107.155446 127.44767 L 106.99391 127.363941 L 107.046053 127.189616 C 107.170896 126.77213 107.302905 126.34018 107.438519 125.905742 L 107.516712 125.655027 L 107.749703 125.77626500000001 C 110.73395 127.32973700000001 114.153108 128.963247 117.912331 130.631605 C 118.355052 130.82811700000002 118.80292299999999 131.024844 119.25358399999999 131.221742 L 119.43378799999999 131.30049300000002 L 119.37542199999999 131.48829300000003 C 119.23019399999998 131.95569100000003 119.10406399999998 132.37021600000003 118.98977899999998 132.75555800000004 L 118.91913899999999 132.99387000000004 L 118.69129799999999 132.89447700000005 C 118.189439 132.67560600000004 117.69152799999999 132.45686300000006 117.19936799999999 132.23846400000005 C 113.50430399999999 130.59868800000004 110.12501499999999 128.98685000000006 107.15544499999999 127.44766900000005 Z M 113.033689 147.846614 C 113.76295999999999 148.17032899999998 114.53579099999999 148.50854999999999 115.33068 148.851877 L 115.598776 148.967707 L 115.63577000000001 148.677981 C 115.68791300000001 148.269249 115.74782400000001 147.826228 115.81884900000001 147.32355299999998 L 115.84232400000002 147.15781199999998 L 115.68872800000003 147.09124899999998 C 114.99245900000003 146.78933499999997 114.35721700000002 146.510811 113.74669500000003 146.23979599999998 C 110.18406900000004 144.658686 106.92078300000003 143.10581499999998 104.04747300000002 141.624227 L 103.77710200000003 141.484836 L 103.72976600000003 141.785334 C 103.65891200000003 142.234535 103.58887300000002 142.698114 103.52153800000002 143.16306500000002 L 103.49900700000002 143.31859200000002 L 103.63887000000003 143.39017600000003 C 106.44497300000002 144.82610100000002 109.60586200000003 146.32545600000003 113.03368900000002 147.84661200000002 Z M 123.68646 117.249206 L 123.68646 117.249249 C 123.983009 117.38271800000001 124.282091 117.516401 124.58250199999999 117.65012700000001 L 124.777255 117.73681700000002 L 124.86982499999999 117.54485400000002 C 125.05595199999999 117.15878200000002 125.250919 116.76120900000001 125.449276 116.36320600000002 L 125.551673 116.15776700000002 L 125.341943 116.06442500000001 C 125.028699 115.92503400000001 124.716958 115.78572900000002 124.407963 115.64668100000002 C 120.444288 113.86197800000002 116.87767099999999 112.11705800000001 113.80707699999999 110.46037300000002 L 113.60494299999999 110.35132400000002 L 113.504949 110.55809300000001 C 113.309123 110.96300500000001 113.11789 111.36448400000002 112.936441 111.75137100000002 L 112.848163 111.93951500000001 L 113.031114 112.03809300000002 C 116.12647100000001 113.70610800000001 119.711456 115.45935300000002 123.68646100000001 117.24920700000001 Z M 132.556546 102.895019 L 132.556589 102.895019 C 132.742844 102.98158000000001 132.93073 103.068185 133.118574 103.15470300000001 L 133.284444 103.231136 L 133.389889 103.082046 C 133.63622700000002 102.733783 133.89183400000002 102.377752 134.17130300000002 101.993654 L 134.32914800000003 101.77671400000001 L 134.08534200000003 101.66470300000002 C 133.82106600000003 101.54333700000002 133.55816200000004 101.42188400000002 133.29701900000003 101.30060400000002 C 129.20159200000003 99.39753900000002 125.53918600000003 97.51545900000002 122.41155700000003 95.70659400000002 L 122.23607400000003 95.60509800000003 L 122.12080200000003 95.77182700000003 C 121.87055900000003 96.13369400000003 121.61808400000002 96.50358700000002 121.37033100000002 96.87129100000003 L 121.23896500000002 97.06625800000003 L 121.44234400000002 97.18419100000003 C 124.58885600000002 99.00863400000003 128.32821 100.93002500000003 132.55654800000002 102.89501800000002 Z M 153.472541 76.05808 C 155.08257600000002 76.778682 156.797283 77.51567800000001 158.569069 78.248639 L 158.677818 78.293615 L 158.775495 78.228082 C 159.204955 77.939858 159.652654 77.644983 160.10610400000002 77.351609 L 160.45947400000003 77.122953 L 160.06988300000003 76.963692 C 158.51310600000002 76.327463 157.00087700000003 75.68883 155.57533700000005 75.065648 C 152.13025800000005 73.559641 149.06494300000006 72.09213 146.46453600000004 70.703884 L 146.34153900000004 70.63818 L 146.22974300000004 70.721523 C 145.83015200000006 71.01936 145.44004600000005 71.314192 145.07032500000005 71.597824 L 144.80175700000007 71.803821 L 145.09925000000007 71.965271 C 147.50516200000007 73.270946 150.32233700000006 74.647948 153.47254000000007 76.05808 Z M 142.072216 89.062174 C 142.75797 89.380825 143.47531 89.70866 144.204152 90.036624 L 144.342084 90.09868 L 144.449288 89.992034 C 144.811799 89.63136800000001 145.14156499999999 89.307653 145.457427 89.00234900000001 L 145.69119 88.77643900000001 L 145.394426 88.643786 C 144.503576 88.24552600000001 143.634872 87.849884 142.81255900000002 87.46776000000001 C 139.19156800000002 85.78498200000001 135.938666 84.11889900000001 133.14419400000003 82.51573000000002 L 132.99476100000004 82.43002700000002 L 132.87588400000004 82.55465500000003 C 132.55689000000004 82.88901300000002 132.24214400000005 83.22307100000002 131.94040200000003 83.54751600000003 L 131.75268800000003 83.74935000000004 L 131.99130100000002 83.88736800000004 C 134.84980400000003 85.54079100000004 138.241496 87.28184900000004 142.07221800000002 89.06217500000004 Z M 116.538163 183.449953 L 116.92088799999999 183.61003 L 116.838275 183.203487 C 116.737422 182.706949 116.63837199999999 182.198524 116.53537399999999 181.649114 L 116.51365899999999 181.53306899999998 L 116.40490999999999 181.487149 C 114.19104699999998 180.55235399999998 112.04580699999998 179.611035 110.02879999999999 178.689329 C 107.91038199999998 177.72140199999998 105.87367699999999 176.745365 103.97528899999999 175.78838199999998 L 103.59604099999999 175.59719099999998 L 103.65908499999999 176.01720999999998 C 103.738136 176.54400299999998 103.82345299999999 177.08474499999997 103.91263299999999 177.62441299999998 L 103.93095799999999 177.73552199999997 L 104.03181099999999 177.78551899999997 C 105.687294 178.60594299999997 107.459166 179.44812599999997 109.29815699999999 180.28859199999997 C 111.57759499999999 181.33003399999996 114.01346199999999 182.39366299999998 116.53816599999999 183.44995299999997 Z M 114.48678 165.675707 L 114.80251299999999 165.81011999999998 L 114.792514 165.46713599999998 C 114.77702099999999 164.93648 114.766164 164.46389 114.75942599999999 164.02245599999998 L 114.75719399999998 163.87997499999997 L 114.62621399999999 163.82388399999996 C 113.35796099999999 163.28052499999995 112.11979299999999 162.73871099999997 110.94621299999999 162.21350499999997 C 107.96445499999999 160.87911899999997 105.18822099999998 159.56005399999998 102.69463199999998 158.29287399999998 L 102.37726799999999 158.13159599999997 L 102.37537999999999 158.48762699999997 C 102.37284799999999 158.96262099999998 102.373663 159.44688499999998 102.377826 159.96818499999998 L 102.378899 160.10246899999999 L 102.498892 160.16272299999997 C 104.858712 161.34879099999998 107.459076 162.57841999999997 110.22767 163.81748899999997 C 111.59699 164.43032899999997 113.029954 165.05548599999997 114.486779 165.67570699999996 Z M 181.348261 59.491103 C 178.58438700000002 58.267612 176.21388100000001 57.081028 174.302533 55.964269 L 174.215328 55.913328 L 174.119883 55.94633 C 173.370399 56.205457 172.679881 56.452223000000004 172.00884699999997 56.700793000000004 L 171.59603799999996 56.853703 L 171.96635999999995 57.091672 C 173.75346599999995 58.240275000000004 176.04560799999996 59.468916 178.77905399999995 60.743348000000005 C 181.75930999999994 62.132581 185.19125699999995 63.54387200000001 188.97961999999995 64.938083 L 189.04167599999997 64.96095700000001 L 189.10604999999995 64.945722 C 190.18641599999995 64.690286 191.28515099999996 64.451588 192.37169699999995 64.23623500000001 L 193.16220899999996 64.07950600000001 L 192.40156599999997 63.81325500000001 C 188.31716799999998 62.38368100000001 184.59824299999997 60.92947400000001 181.34825999999998 59.49110300000001 Z M 169.181328 67.078945 C 165.451073 65.406553 162.293102 63.79153900000001 159.795221 62.278795 L 159.688575 62.214249 L 159.57841 62.272658 C 158.949348 62.606457999999996 158.372471 62.919359 157.814821 63.229341 L 157.49346599999998 63.408 L 157.80301899999998 63.6064 C 160.13223999999997 65.099146 163.11511399999998 66.69609200000001 166.66881299999997 68.352905 C 168.33639899999997 69.13015600000001 170.14659399999996 69.927277 172.04910099999998 70.72216700000001 L 172.13750799999997 70.75911800000002 L 172.22475599999996 70.71946400000002 C 172.96874699999995 70.38124300000001 173.72411099999997 70.04984600000002 174.46981899999994 69.73445700000002 L 174.95854599999996 69.52773100000002 L 174.46681499999997 69.32842900000001 C 172.60816799999998 68.57503900000002 170.82990199999998 67.81821600000002 169.18132799999998 67.07894600000002 Z M 202.003069 55.115177 L 201.67364600000002 54.825022000000004 C 201.39838300000002 55.109512 201.02836200000002 55.266198 200.63190400000002 55.266198 C 200.47002500000002 55.266198 200.31020600000002 55.239247000000006 200.15699600000002 55.18616 C 197.23235900000003 54.172013 194.56101200000003 53.139326000000004 192.21694200000002 52.116767 C 191.88949300000002 51.973943000000006 191.560671 51.827642000000004 191.211679 51.669454 L 191.150996 51.641945 L 191.085163 51.652803 C 190.10298799999998 51.814897 189.103046 51.994886 188.113233 52.18775 L 187.483999 52.310361 L 188.05615500000002 52.599529 C 188.60178900000002 52.875220999999996 189.17540300000002 53.153487999999996 189.76112 53.426562 C 192.541216 54.722538 195.825918 56.029371999999995 199.523815 57.310756999999995 C 200.040352 57.489717 200.40857000000003 57.93672899999999 200.48487500000002 58.47734199999999 L 200.92193100000003 58.436614999999996 C 200.91849800000003 58.361169 200.91678100000004 58.285165 200.91678100000004 58.208903 C 200.91678100000004 57.072531 201.29238100000003 56.002765 202.00307000000004 55.115177 Z M 123.254254 203.709248 L 123.046155 203.218547 C 122.798787 202.635276 122.560175 202.058743 122.33684 201.50487 L 122.30237799999999 201.419338 L 122.217147 201.384018 C 118.51049499999999 199.848657 115.025419 198.302695 111.858822 196.789221 C 110.799356 196.282813 109.75109 195.767478 108.743252 195.25759299999999 L 108.260147 195.013187 L 108.436274 195.525174 C 108.648923 196.143078 108.862258 196.74677699999998 109.07039999999999 197.31936199999998 L 109.10052699999999 197.40227599999997 L 109.17962099999998 197.44132999999997 C 109.81391899999998 197.75453099999996 110.46040499999998 198.06863299999998 111.10109699999998 198.37483799999995 C 114.64209299999999 200.06748599999995 118.56495499999998 201.79442499999996 122.76076299999998 203.50775899999996 L 123.25425399999999 203.70924899999997 Z M 167.016346 252.579242 L 166.987292 252.562977 L 166.954762 252.55606799999998 C 164.64480999999998 252.064766 162.28507599999998 251.49844699999997 159.94113499999997 250.87290399999998 C 154.84662399999996 249.51328299999997 150.02823399999997 247.93779599999996 145.61982099999997 246.19025799999997 L 144.08106899999999 245.58033599999996 L 145.40738699999997 246.57062199999996 C 146.76859499999998 247.58695799999995 148.17671099999998 248.58458199999995 149.59267999999997 249.53572899999995 L 149.61624099999997 249.55156499999995 L 149.64302099999998 249.56087799999995 C 152.78567099999998 250.65373299999993 156.09792499999998 251.66659299999995 159.48785699999996 252.57130399999994 C 163.36192399999996 253.60527799999994 167.19835299999997 254.46188099999995 170.89045599999997 255.11742199999995 L 172.37860999999998 255.38165599999994 L 171.02727199999998 254.70465699999994 C 169.682586 254.03091899999995 168.333094 253.31585399999994 167.01634599999997 252.57924399999993 Z M 134.65445 223.761903 L 134.226449 223.164041 C 133.757378 222.5088 133.305086 221.862099 132.882106 221.241921 L 132.844125 221.18625899999998 L 132.781468 221.161454 C 127.14509999999999 218.92918 121.972225 216.61961499999998 117.406567 214.297003 L 116.74682 213.961357 L 117.116627 214.602607 C 117.516303 215.29574300000002 117.933404 216.000337 118.35625499999999 216.69694900000002 L 118.38964399999999 216.75192400000003 L 118.447409 216.78024900000003 C 123.05490999999999 219.03797200000002 128.27701 221.29779800000003 133.96860999999998 223.49689700000002 L 134.65445 223.76190300000002 Z M 150.241398 240.787223 L 149.444663 240.079882 C 148.639087 239.36473 147.83145199999998 238.624001 147.04415899999998 237.878336 L 147.00978299999997 237.84576299999998 L 146.96510699999996 237.83026999999998 C 139.91328499999997 235.38268699999998 133.71265799999995 232.78652899999997 128.53561999999997 230.113894 L 127.54820999999997 229.60418099999998 L 128.26726699999998 230.45134199999998 C 129.01018499999998 231.32661299999998 129.78159999999997 232.205618 130.56000899999998 233.06393699999998 L 130.589106 233.095995 L 130.628202 233.114621 C 136.01793199999997 235.68550199999999 142.27645199999998 238.154457 149.22982499999998 240.452821 L 150.24139699999998 240.787222 Z" stroke-linecap="round" />
</g>
</g>
</g>
<g transform="matrix(1.9211538461538462 0 0 1.9211538461538462 544.3021795652544 486.8150097826722)" id="text-logo"  >
<g style=""  paint-order="stroke"   >
		<g transform="matrix(1 0 0 1 0 0)" id="text-logo-path-0"  >
<path style="stroke: none; stroke-width: 0; stroke-dasharray: none; stroke-linecap: butt; stroke-dashoffset: 0; stroke-linejoin: miter; stroke-miterlimit: 4; fill: rgb(255,255,255); fill-rule: nonzero; opacity: 1;"  paint-order="stroke"  transform=" translate(-91.22, 10.905000000000001)" d="M 11.22 0 L 1.9 0 L 1.9 -21.82 L 10.63 -21.82 Q 13.04 -21.82 14.65 -21.1 Q 16.26 -20.39 17.07 -19.13 Q 17.88 -17.87 17.88 -16.23 L 17.88 -16.23 Q 17.88 -14.95 17.37 -13.98 Q 16.85 -13.02 15.96 -12.41 Q 15.07 -11.79 13.93 -11.54 L 13.93 -11.54 L 13.93 -11.32 Q 15.18 -11.27 16.27 -10.62 Q 17.37 -9.97 18.05 -8.81 Q 18.73 -7.64 18.73 -6.03 L 18.73 -6.03 Q 18.73 -4.29 17.87 -2.94 Q 17.01 -1.58 15.34 -0.79 Q 13.67 0 11.22 0 L 11.22 0 Z M 6.51 -9.57 L 6.51 -3.77 L 10.27 -3.77 Q 12.2 -3.77 13.08 -4.51 Q 13.97 -5.25 13.97 -6.49 L 13.97 -6.49 Q 13.97 -7.39 13.53 -8.09 Q 13.09 -8.78 12.29 -9.17 Q 11.48 -9.57 10.38 -9.57 L 10.38 -9.57 L 6.51 -9.57 Z M 6.51 -18.09 L 6.51 -12.69 L 9.93 -12.69 Q 10.88 -12.69 11.62 -13.02 Q 12.36 -13.36 12.79 -13.98 Q 13.22 -14.6 13.22 -15.46 L 13.22 -15.46 Q 13.22 -16.64 12.38 -17.37 Q 11.55 -18.09 10.01 -18.09 L 10.01 -18.09 L 6.51 -18.09 Z M 28.7 -7.71 L 20.74 -21.82 L 25.91 -21.82 L 30.89 -12.42 L 31.1 -12.42 L 36.07 -21.82 L 41.24 -21.82 L 33.28 -7.71 L 33.28 0 L 28.7 0 L 28.7 -7.71 Z M 51.27 -18.01 L 44.59 -18.01 L 44.59 -21.82 L 62.51 -21.82 L 62.51 -18.01 L 55.83 -18.01 L 55.83 0 L 51.27 0 L 51.27 -18.01 Z M 80.51 0 L 65.77 0 L 65.77 -21.82 L 80.47 -21.82 L 80.47 -18.01 L 70.38 -18.01 L 70.38 -12.82 L 79.71 -12.82 L 79.71 -9.01 L 70.38 -9.01 L 70.38 -3.8 L 80.51 -3.8 L 80.51 0 Z M 83.26 -21.82 L 88.39 -21.82 L 93.66 -5.24 L 93.86 -5.24 L 99.15 -21.82 L 104.26 -21.82 L 96.74 0 L 90.8 0 L 83.26 -21.82 Z M 121.93 0 L 107.18 0 L 107.18 -21.82 L 121.88 -21.82 L 121.88 -18.01 L 111.79 -18.01 L 111.79 -12.82 L 121.13 -12.82 L 121.13 -9.01 L 111.79 -9.01 L 111.79 -3.8 L 121.93 -3.8 L 121.93 0 Z M 130.47 0 L 125.86 0 L 125.86 -21.82 L 134.47 -21.82 Q 136.94 -21.82 138.69 -20.94 Q 140.44 -20.06 141.36 -18.46 Q 142.29 -16.85 142.29 -14.69 L 142.29 -14.69 Q 142.29 -12.52 141.35 -10.96 Q 140.41 -9.4 138.64 -8.57 Q 136.86 -7.73 134.35 -7.73 L 134.35 -7.73 L 128.59 -7.73 L 128.59 -11.44 L 133.6 -11.44 Q 134.93 -11.44 135.8 -11.8 Q 136.67 -12.17 137.1 -12.89 Q 137.54 -13.62 137.54 -14.69 L 137.54 -14.69 Q 137.54 -15.78 137.1 -16.52 Q 136.67 -17.27 135.79 -17.66 Q 134.91 -18.05 133.58 -18.05 L 133.58 -18.05 L 130.47 -18.05 L 130.47 0 Z M 132.67 -9.93 L 137.64 -9.93 L 143.06 0 L 137.97 0 L 132.67 -9.93 Z M 162.1 -15.54 L 157.68 -15.54 Q 157.55 -16.83 156.59 -17.55 Q 155.62 -18.26 153.95 -18.26 L 153.95 -18.26 Q 152.82 -18.26 152.05 -17.95 Q 151.27 -17.63 150.86 -17.08 Q 150.45 -16.52 150.45 -15.82 L 150.45 -15.82 Q 150.43 -15.23 150.7 -14.8 Q 150.97 -14.36 151.45 -14.05 Q 151.93 -13.73 152.56 -13.5 Q 153.19 -13.27 153.9 -13.11 L 153.9 -13.11 L 155.86 -12.65 Q 157.29 -12.33 158.48 -11.79 Q 159.67 -11.26 160.55 -10.48 Q 161.42 -9.71 161.91 -8.65 Q 162.39 -7.6 162.4 -6.23 L 162.4 -6.23 Q 162.39 -4.23 161.38 -2.76 Q 160.38 -1.3 158.49 -0.5 Q 156.6 0.31 153.93 0.31 L 153.93 0.31 Q 151.29 0.31 149.34 -0.5 Q 147.38 -1.31 146.29 -2.9 Q 145.2 -4.5 145.14 -6.85 L 145.14 -6.85 L 149.61 -6.85 Q 149.68 -5.75 150.24 -5.02 Q 150.8 -4.29 151.74 -3.93 Q 152.69 -3.56 153.88 -3.56 L 153.88 -3.56 Q 155.05 -3.56 155.92 -3.9 Q 156.79 -4.24 157.27 -4.85 Q 157.75 -5.45 157.75 -6.24 L 157.75 -6.24 Q 157.75 -6.98 157.31 -7.48 Q 156.88 -7.98 156.06 -8.33 Q 155.23 -8.68 154.04 -8.97 L 154.04 -8.97 L 151.66 -9.57 Q 148.9 -10.24 147.31 -11.67 Q 145.71 -13.09 145.72 -15.51 L 145.72 -15.51 Q 145.71 -17.49 146.78 -18.97 Q 147.85 -20.45 149.72 -21.29 Q 151.6 -22.12 153.99 -22.12 L 153.99 -22.12 Q 156.41 -22.12 158.23 -21.29 Q 160.05 -20.45 161.06 -18.97 Q 162.07 -17.49 162.1 -15.54 L 162.1 -15.54 Z M 180.54 0 L 165.79 0 L 165.79 -21.82 L 180.49 -21.82 L 180.49 -18.01 L 170.4 -18.01 L 170.4 -12.82 L 179.74 -12.82 L 179.74 -9.01 L 170.4 -9.01 L 170.4 -3.8 L 180.54 -3.8 L 180.54 0 Z" stroke-linecap="round" />
</g>
</g>
</g>
<g transform="matrix(1.9211538461538462 0 0 1.9211538461538462 506.96098448782493 542.0350960905829)" id="tagline-160a43d6-7eae-4136-9ea1-306f34447643-logo"  >
<g style=""  paint-order="stroke"   >
		<g transform="matrix(1 0 0 1 0 0)" id="tagline-160a43d6-7eae-4136-9ea1-306f34447643-logo-path-0"  >
<path style="stroke: none; stroke-width: 0; stroke-dasharray: none; stroke-linecap: butt; stroke-dashoffset: 0; stroke-linejoin: miter; stroke-miterlimit: 4; fill: rgb(255,255,255); fill-rule: nonzero; opacity: 1;"  paint-order="stroke"  transform=" translate(-71.75500000000001, 7.265)" d="M 1.26 -14.55 L 4.34 -14.55 L 4.34 0 L 1.26 0 L 1.26 -14.55 Z M 16.44 -14.55 L 19.5 -14.55 L 19.5 0 L 16.84 0 L 10.52 -9.15 L 10.41 -9.15 L 10.41 0 L 7.34 0 L 7.34 -14.55 L 10.03 -14.55 L 16.31 -5.4 L 16.44 -5.4 L 16.44 -14.55 Z M 31.6 -14.55 L 34.66 -14.55 L 34.66 0 L 32.01 0 L 25.68 -9.15 L 25.57 -9.15 L 25.57 0 L 22.5 0 L 22.5 -14.55 L 25.2 -14.55 L 31.47 -5.4 L 31.6 -5.4 L 31.6 -14.55 Z M 51.02 -7.27 L 51.02 -7.27 Q 51.02 -4.89 50.13 -3.22 Q 49.23 -1.56 47.68 -0.68 Q 46.14 0.2 44.21 0.2 L 44.21 0.2 Q 42.27 0.2 40.73 -0.68 Q 39.19 -1.56 38.3 -3.23 Q 37.4 -4.9 37.4 -7.27 L 37.4 -7.27 Q 37.4 -9.65 38.3 -11.32 Q 39.19 -12.99 40.73 -13.87 Q 42.27 -14.74 44.21 -14.74 L 44.21 -14.74 Q 46.14 -14.74 47.68 -13.87 Q 49.23 -12.99 50.13 -11.32 Q 51.02 -9.65 51.02 -7.27 Z M 47.91 -7.27 L 47.91 -7.27 Q 47.91 -8.81 47.45 -9.87 Q 46.99 -10.93 46.16 -11.48 Q 45.33 -12.02 44.21 -12.02 L 44.21 -12.02 Q 43.1 -12.02 42.27 -11.48 Q 41.44 -10.93 40.98 -9.87 Q 40.52 -8.81 40.52 -7.27 L 40.52 -7.27 Q 40.52 -5.73 40.98 -4.67 Q 41.44 -3.62 42.27 -3.07 Q 43.1 -2.52 44.21 -2.52 L 44.21 -2.52 Q 45.33 -2.52 46.16 -3.07 Q 46.99 -3.62 47.45 -4.67 Q 47.91 -5.73 47.91 -7.27 Z M 52.15 -14.55 L 55.57 -14.55 L 59.08 -3.49 L 59.22 -3.49 L 62.74 -14.55 L 66.15 -14.55 L 61.14 0 L 57.17 0 L 52.15 -14.55 Z M 72.58 -11.22 L 68.93 0 L 65.64 0 L 70.66 -14.55 L 74.62 -14.55 L 79.64 0 L 76.34 0 L 72.7 -11.22 L 72.58 -11.22 Z M 68.73 -3.32 L 68.73 -5.72 L 76.51 -5.72 L 76.51 -3.32 L 68.73 -3.32 Z M 83.95 -12.01 L 79.5 -12.01 L 79.5 -14.55 L 91.45 -14.55 L 91.45 -12.01 L 86.99 -12.01 L 86.99 0 L 83.95 0 L 83.95 -12.01 Z M 93.88 -14.55 L 96.96 -14.55 L 96.96 0 L 93.88 0 L 93.88 -14.55 Z M 113.32 -7.27 L 113.32 -7.27 Q 113.32 -4.89 112.42 -3.22 Q 111.52 -1.56 109.98 -0.68 Q 108.43 0.2 106.51 0.2 L 106.51 0.2 Q 104.57 0.2 103.03 -0.68 Q 101.49 -1.56 100.59 -3.23 Q 99.7 -4.9 99.7 -7.27 L 99.7 -7.27 Q 99.7 -9.65 100.59 -11.32 Q 101.49 -12.99 103.03 -13.87 Q 104.57 -14.74 106.51 -14.74 L 106.51 -14.74 Q 108.43 -14.74 109.98 -13.87 Q 111.52 -12.99 112.42 -11.32 Q 113.32 -9.65 113.32 -7.27 Z M 110.2 -7.27 L 110.2 -7.27 Q 110.2 -8.81 109.74 -9.87 Q 109.28 -10.93 108.45 -11.48 Q 107.62 -12.02 106.51 -12.02 L 106.51 -12.02 Q 105.39 -12.02 104.56 -11.48 Q 103.73 -10.93 103.27 -9.87 Q 102.81 -8.81 102.81 -7.27 L 102.81 -7.27 Q 102.81 -5.73 103.27 -4.67 Q 103.73 -3.62 104.56 -3.07 Q 105.39 -2.52 106.51 -2.52 L 106.51 -2.52 Q 107.62 -2.52 108.45 -3.07 Q 109.28 -3.62 109.74 -4.67 Q 110.2 -5.73 110.2 -7.27 Z M 125.16 -14.55 L 128.22 -14.55 L 128.22 0 L 125.56 0 L 119.23 -9.15 L 119.13 -9.15 L 119.13 0 L 116.05 0 L 116.05 -14.55 L 118.75 -14.55 L 125.03 -5.4 L 125.16 -5.4 L 125.16 -14.55 Z M 142.05 -10.36 L 139.1 -10.36 Q 139.02 -11.22 138.37 -11.7 Q 137.72 -12.17 136.62 -12.17 L 136.62 -12.17 Q 135.86 -12.17 135.35 -11.96 Q 134.83 -11.75 134.55 -11.38 Q 134.28 -11.02 134.28 -10.55 L 134.28 -10.55 Q 134.27 -10.16 134.45 -9.87 Q 134.63 -9.57 134.95 -9.36 Q 135.27 -9.15 135.69 -9 Q 136.11 -8.85 136.58 -8.74 L 136.58 -8.74 L 137.89 -8.43 Q 138.84 -8.22 139.64 -7.86 Q 140.43 -7.51 141.01 -6.99 Q 141.6 -6.47 141.92 -5.77 Q 142.24 -5.06 142.25 -4.15 L 142.25 -4.15 Q 142.24 -2.82 141.57 -1.84 Q 140.9 -0.87 139.64 -0.33 Q 138.38 0.21 136.6 0.21 L 136.6 0.21 Q 134.84 0.21 133.54 -0.33 Q 132.23 -0.87 131.51 -1.94 Q 130.78 -3 130.74 -4.57 L 130.74 -4.57 L 133.72 -4.57 Q 133.77 -3.84 134.14 -3.35 Q 134.51 -2.86 135.14 -2.62 Q 135.77 -2.37 136.57 -2.37 L 136.57 -2.37 Q 137.35 -2.37 137.93 -2.6 Q 138.51 -2.83 138.83 -3.23 Q 139.15 -3.64 139.15 -4.16 L 139.15 -4.16 Q 139.15 -4.65 138.86 -4.99 Q 138.57 -5.32 138.02 -5.55 Q 137.47 -5.79 136.67 -5.98 L 136.67 -5.98 L 135.09 -6.38 Q 133.25 -6.83 132.19 -7.78 Q 131.12 -8.73 131.13 -10.34 L 131.13 -10.34 Q 131.12 -11.66 131.83 -12.65 Q 132.55 -13.64 133.8 -14.19 Q 135.05 -14.74 136.64 -14.74 L 136.64 -14.74 Q 138.26 -14.74 139.47 -14.19 Q 140.68 -13.64 141.35 -12.65 Q 142.03 -11.66 142.05 -10.36 L 142.05 -10.36 Z" stroke-linecap="round" />
</g>
</g>
</g>
</svg>